<svg width="36" height="36" xmlns="http://www.w3.org/2000/svg"><g fill="#4990E2" fill-rule="evenodd"><path d="M33.165 9.424l-.156-.269v17.69l.156-.269-15.32 8.845h.31l-15.32-8.845.156.269V9.155l-.156.269L18.155.579h-.31l15.32 8.845zM18-.048l-.155.09-15.32 8.844-.155.09v18.048l.155.09 15.32 8.844.155.09.155-.09 15.32-8.844.155-.09V8.976l-.155-.09L18.155.042 18-.048z"/><path d="M26.845 2.99l-.269-.155 8.845 15.32v-.31l-8.845 15.32.269-.156H9.155l.269.156-8.845-15.32v.31l8.845-15.32-.269.156h17.69zM8.976 2.37l-.09.155-8.844 15.32-.09.155.09.155 8.844 15.32.09.155h18.048l.09-.155 8.844-15.32.09-.155-.09-.155-8.844-15.32-.09-.155H8.976z"/></g></svg>