<?xml version="1.0" encoding="UTF-8"?>
<svg viewBox="0 0 344 239" version="1.1" xmlns="http://www.w3.org/2000/svg" xmlns:xlink="http://www.w3.org/1999/xlink">
    <g id="Page-1" stroke="none" stroke-width="1" fill="none" fill-rule="evenodd">
        <g id="home" transform="translate(-265.000000, -1387.000000)">
            <g id="content" transform="translate(220.000000, 370.000000)">
                <g id="bfg" transform="translate(0.000000, 935.000000)">
                    <g id="content" transform="translate(45.000000, 45.000000)">
                        <g id="scatterplot" transform="translate(0.000000, 37.000000)">
                            <g id="grid">
                                <rect id="Rectangle" fill-opacity="0.19" fill="#DAD0E3" x="0" y="0" width="344" height="239"></rect>
                                <rect id="Rectangle" fill="#F0EBF7" x="0" y="119" width="344" height="2"></rect>
                                <rect id="Rectangle" fill="#F0EBF7" x="171" y="0" width="2" height="239"></rect>
                            </g>
                            <circle id="Oval" fill-opacity="0.5" fill="#972FED" cx="206" cy="164" r="6"></circle>
                            <circle id="Oval-Copy-11" fill-opacity="0.5" fill="#972FED" cx="206" cy="94" r="6"></circle>
                            <circle id="Oval-Copy-2" fill-opacity="0.5" fill="#F0AC00" cx="154.242775" cy="95" r="6"></circle>
                            <circle id="Oval-Copy" fill-opacity="0.5" fill="#00DBC1" cx="212.080925" cy="144" r="6"></circle>
                            <circle id="Oval-Copy-7" fill-opacity="0.5" fill="#00DBC1" cx="52.0809249" cy="144" r="6"></circle>
                            <circle id="Oval-Copy-5" fill-opacity="0.5" fill="#972FED" cx="196" cy="134" r="6"></circle>
                            <circle id="Oval-Copy-4" fill-opacity="0.5" fill="#F0AC00" cx="104.242775" cy="154" r="6"></circle>
                            <circle id="Oval-Copy-6" fill-opacity="0.5" fill="#F0AC00" cx="224" cy="119" r="6"></circle>
                            <circle id="Oval-Copy-15" fill-opacity="0.5" fill="#F0AC00" cx="40.2427746" cy="222" r="6"></circle>
                            <circle id="Oval-Copy-14" fill-opacity="0.5" fill="#00DBC1" cx="188.080925" cy="142" r="6"></circle>
                            <circle id="Oval-Copy-13" fill-opacity="0.5" fill="#F0AC00" cx="80.2427746" cy="192" r="6"></circle>
                            <circle id="Oval-Copy-12" fill-opacity="0.5" fill="#F0AC00" cx="130" cy="108" r="6"></circle>
                            <circle id="Oval-Copy-3" fill-opacity="0.5" fill="#00DBC1" cx="72" cy="204" r="6"></circle>
                            <circle id="Oval-Copy-32" fill-opacity="0.5" fill="#F0AC00" cx="200.242775" cy="112" r="6"></circle>
                            <circle id="Oval-Copy-31" fill-opacity="0.5" fill="#00DBC1" cx="232" cy="94" r="6"></circle>
                            <circle id="Oval-Copy-10" fill-opacity="0.5" fill="#972FED" transform="translate(160.415601, 66.395417) rotate(-100.000000) translate(-160.415601, -66.395417) " cx="160.415601" cy="66.3954168" r="6"></circle>
                            <circle id="Oval-Copy-9" fill-opacity="0.5" fill="#F0AC00" transform="translate(182.973585, 105.483045) rotate(-100.000000) translate(-182.973585, -105.483045) " cx="182.973585" cy="105.483045" r="6"></circle>
                            <circle id="Oval-Copy-21" fill-opacity="0.5" fill="#00DBC1" transform="translate(155.101839, 85.847578) rotate(-80.000000) translate(-155.101839, -85.847578) " cx="155.101839" cy="85.8475778" r="6"></circle>
                            <circle id="Oval-Copy-20" fill-opacity="0.5" fill="#972FED" transform="translate(91.853649, 195.893643) rotate(-80.000000) translate(-91.853649, -195.893643) " cx="91.8536485" cy="195.893643" r="6"></circle>
                            <circle id="Oval-Copy-19" fill-opacity="0.5" fill="#00DBC1" transform="translate(98.356978, 205.081595) rotate(-80.000000) translate(-98.356978, -205.081595) " cx="98.3569776" cy="205.081595" r="6"></circle>
                            <circle id="Oval-Copy-18" fill-opacity="0.5" fill="#F0AC00" transform="translate(117.262865, 155.448682) rotate(-80.000000) translate(-117.262865, -155.448682) " cx="117.262865" cy="155.448682" r="6"></circle>
                            <circle id="Oval-Copy-17" fill-opacity="0.5" fill="#F0AC00" transform="translate(115.198820, 195.948320) rotate(-80.000000) translate(-115.198820, -195.948320) " cx="115.19882" cy="195.94832" r="6"></circle>
                            <circle id="Oval-Copy-16" fill-opacity="0.5" fill="#F0AC00" transform="translate(221.507917, 163.770240) rotate(-180.000000) translate(-221.507917, -163.770240) " cx="221.507917" cy="163.77024" r="6"></circle>
                            <circle id="Oval-Copy-26" fill-opacity="0.5" fill="#F0AC00" transform="translate(121.507917, 183.770240) rotate(-180.000000) translate(-121.507917, -183.770240) " cx="121.507917" cy="183.77024" r="6"></circle>
                            <circle id="Oval-Copy-8" fill-opacity="0.5" fill="#00DBC1" transform="translate(125.900748, 139.790415) rotate(-100.000000) translate(-125.900748, -139.790415) " cx="125.900748" cy="139.790415" r="6"></circle>
                            <circle id="Oval-Copy-25" fill-opacity="0.5" fill="#F0AC00" cx="144.242775" cy="154" r="6"></circle>
                            <circle id="Oval-Copy-24" fill-opacity="0.5" fill="#972FED" transform="translate(110.415601, 155.395417) rotate(-100.000000) translate(-110.415601, -155.395417) " cx="110.415601" cy="155.395417" r="6"></circle>
                            <circle id="Oval-Copy-30" fill-opacity="0.5" fill="#F0AC00" transform="translate(145.262865, 185.448682) rotate(-80.000000) translate(-145.262865, -185.448682) " cx="145.262865" cy="185.448682" r="6"></circle>
                            <circle id="Oval-Copy-29" fill-opacity="0.5" fill="#00DBC1" transform="translate(153.900748, 169.790415) rotate(-100.000000) translate(-153.900748, -169.790415) " cx="153.900748" cy="169.790415" r="6"></circle>
                            <circle id="Oval-Copy-28" fill-opacity="0.5" fill="#F0AC00" cx="172.242775" cy="184" r="6"></circle>
                            <circle id="Oval-Copy-27" fill-opacity="0.5" fill="#972FED" transform="translate(130.415601, 185.395417) rotate(-100.000000) translate(-130.415601, -185.395417) " cx="130.415601" cy="185.395417" r="6"></circle>
                            <circle id="Oval-Copy-33" fill-opacity="0.5" fill="#972FED" transform="translate(300.415601, 25.395417) rotate(-100.000000) translate(-300.415601, -25.395417) " cx="300.415601" cy="25.3954168" r="6"></circle>
                            <circle id="Oval-Copy-23" fill-opacity="0.5" fill="#00DBC1" transform="translate(105.101839, 174.847578) rotate(-80.000000) translate(-105.101839, -174.847578) " cx="105.101839" cy="174.847578" r="6"></circle>
                            <circle id="Oval-Copy-22" fill-opacity="0.5" fill="#00DBC1" transform="translate(105.900748, 129.790415) rotate(-100.000000) translate(-105.900748, -129.790415) " cx="105.900748" cy="129.790415" r="6"></circle>
                        </g>
                    </g>
                </g>
            </g>
        </g>
    </g>
</svg>
