<?xml version="1.0" encoding="UTF-8"?>
<svg viewBox="0 0 467 333" version="1.1" xmlns="http://www.w3.org/2000/svg" xmlns:xlink="http://www.w3.org/1999/xlink">
    <g id="Page-1" stroke="none" stroke-width="1" fill="none" fill-rule="evenodd">
        <g id="home" transform="translate(-883.000000, -1727.000000)">
            <g id="Group" transform="translate(633.000000, 29.000000)">
                <g id="experience" transform="translate(0.000000, 872.000000)">
                    <g id="wt-copy" transform="translate(0.000000, 760.000000)">
                        <g id="img">
                            <g id="watchingThat" transform="translate(251.000000, 67.000000)">
                                <g id="video-player" transform="translate(50.359551, 53.600000)">
                                    <rect id="Rectangle" fill="#E9F3FD" fill-rule="nonzero" x="0" y="10.4" width="330.934189" height="126.4" rx="6.34771604"></rect>
                                    <rect id="Rectangle" stroke="#3F3D56" stroke-width="0.5" x="16.7865169" y="0" width="330.934189" height="126.4" rx="7.68189028"></rect>
                                    <g id="play-icon" transform="translate(123.101124, 33.600000)">
                                        <path d="M51.9242662,60 C62.8217191,54.1546563 69.3584898,42.5404835 68.6992055,30.1952145 C68.0399213,17.8499456 60.3033477,6.99749391 48.8452805,2.34519044 C37.3872134,-2.30711303 24.2717428,0.0788114429 15.187801,8.4680515 M30.4489506,22.9738619 L30.4489506,17.5434747 L49.5931844,31.8966614 L45.1860807,34.9366" id="Shape" stroke="#3F3D56" stroke-width="0.5"></path>
                                        <path d="M31.9743178,3.2 C14.3153897,3.2 0,17.526888 0,35.2 C0,52.873112 14.3153897,67.2 31.9743178,67.2 C49.6332459,67.2 63.9486356,52.873112 63.9486356,35.2 C63.9404607,17.530278 49.6298587,3.20818146 31.9743178,3.2 Z M25.5794543,49.6 L25.5794543,20.8 L44.7640449,35.2 L25.5794543,49.6 Z" id="Shape" fill="#73B3F4" fill-rule="nonzero"></path>
                                    </g>
                                </g>
                                <rect id="tv-frame" stroke="#3F3D56" stroke-width="0.5" x="0" y="0" width="448.439807" height="244" rx="6.54614322"></rect>
                                <g id="connectors" transform="translate(50.359551, 255.200000)">
                                    <path id="Path-2" d="M0.479999971,33.4581088 L0.479999971,35.4044443 L-0.479999971,35.4044443 L-0.479999971,33.4581088 C-2.68596695,33.2145512 -4.39999986,31.311662 -4.39999986,29.0044444 C-4.39999986,26.532355 -2.43224757,24.5244445 -2.4492936e-16,24.5244445 C2.43224757,24.5244445 4.39999986,26.532355 4.39999986,29.0044444 C4.39999986,31.311662 2.68596695,33.2145512 0.479999971,33.4581088 Z M-2.4492936e-16,25.4844444 C-1.89766474,25.4844444 -3.43999991,27.0582559 -3.43999991,29.0044444 C-3.43999991,30.950633 -1.89766474,32.5244445 2.4492936e-16,32.5244445 C1.89766474,32.5244445 3.43999991,30.950633 3.43999991,29.0044444 C3.43999991,27.0582559 1.89766474,25.4844444 -2.4492936e-16,25.4844444 Z M-0.479999971,37.8044442 L0.479999971,37.8044442 L0.479999971,40.204444 L-0.479999971,40.204444 L-0.479999971,37.8044442 Z M-0.479999971,42.6044439 L0.479999971,42.6044439 L0.479999971,45.0044437 L-0.479999971,45.0044437 L-0.479999971,42.6044439 Z M-0.479999971,47.4044436 L0.479999971,47.4044436 L0.479999971,49.8044434 L-0.479999971,49.8044434 L-0.479999971,47.4044436 Z M-0.479999971,52.2044433 L0.479999971,52.2044433 L0.479999971,54.6044432 L-0.479999971,54.6044432 L-0.479999971,52.2044433 Z M-0.0248873167,57.1694565 L0.837134703,56.7469427 C1.15376929,57.3929475 1.66347121,57.9292115 2.29228751,58.2788397 L1.82577893,59.1178687 C1.02584336,58.6730964 0.37805669,57.9915518 -0.0248873167,57.1694565 Z M4.4815077,59.68 L4.4815077,58.72 L6.88150756,58.72 L6.88150756,59.68 L4.4815077,59.68 Z M9.28150741,59.68 L9.28150741,58.72 L11.6815073,58.72 L11.6815073,59.68 L9.28150741,59.68 Z M14.0815071,59.68 L14.0815071,58.72 L16.481507,58.72 L16.481507,59.68 L14.0815071,59.68 Z M18.8815068,59.68 L18.8815068,58.72 L21.2815067,58.72 L21.2815067,59.68 L18.8815068,59.68 Z M23.6815066,59.68 L23.6815066,58.72 L26.0815064,58.72 L26.0815064,59.68 L23.6815066,59.68 Z M28.4815063,59.68 L28.4815063,58.72 L30.8815061,58.72 L30.8815061,59.68 L28.4815063,59.68 Z M33.281506,59.68 L33.281506,58.72 L35.6815058,58.72 L35.6815058,59.68 L33.281506,59.68 Z M38.0815057,59.68 L38.0815057,58.72 L40.4815056,58.72 L40.4815056,59.68 L38.0815057,59.68 Z M42.8815054,59.68 L42.8815054,58.72 L45.2815053,58.72 L45.2815053,59.68 L42.8815054,59.68 Z M47.6815051,59.68 L47.6815051,58.72 L50.081505,58.72 L50.081505,59.68 L47.6815051,59.68 Z M52.4815048,59.68 L52.4815048,58.72 L54.8815047,58.72 L54.8815047,59.68 L52.4815048,59.68 Z M57.2815046,59.68 L57.2815046,58.72 L59.6815044,58.72 L59.6815044,59.68 L57.2815046,59.68 Z M62.0815043,59.68 L62.0815043,58.72 L64.4815041,58.72 L64.4815041,59.68 L62.0815043,59.68 Z M66.881504,59.68 L66.881504,58.72 L69.2815038,58.72 L69.2815038,59.68 L66.881504,59.68 Z M71.6815037,59.68 L71.6815037,58.72 L74.0815035,58.72 L74.0815035,59.68 L71.6815037,59.68 Z M76.4815034,59.68 L76.4815034,58.72 L78.8815033,58.72 L78.8815033,59.68 L76.4815034,59.68 Z M81.2815031,59.68 L81.2815031,58.72 L83.681503,58.72 L83.681503,59.68 L81.2815031,59.68 Z M86.0815028,59.68 L86.0815028,58.72 L88.4815027,58.72 L88.4815027,59.68 L86.0815028,59.68 Z M90.8815025,59.68 L90.8815025,58.72 L93.2815024,58.72 L93.2815024,59.68 L90.8815025,59.68 Z M95.6815023,59.68 L95.6815023,58.72 L98.0815021,58.72 L98.0815021,59.68 L95.6815023,59.68 Z M100.481502,59.68 L100.481502,58.72 L102.881502,58.72 L102.881502,59.68 L100.481502,59.68 Z M105.281502,59.68 L105.281502,58.72 L107.681502,58.72 L107.681502,59.68 L105.281502,59.68 Z M110.081501,59.68 L110.081501,58.72 L112.481501,58.72 L112.481501,59.68 L110.081501,59.68 Z M114.881501,59.68 L114.881501,58.72 L117.281501,58.72 L117.281501,59.68 L114.881501,59.68 Z M119.681501,59.68 L119.681501,58.72 L122.081501,58.72 L122.081501,59.68 L119.681501,59.68 Z M124.481501,59.68 L124.481501,58.72 L126.8815,58.72 L126.8815,59.68 L124.481501,59.68 Z M129.2815,59.68 L129.2815,58.72 L131.6815,58.72 L131.6815,59.68 L129.2815,59.68 Z M134.0815,59.68 L134.0815,58.72 L136.4815,58.72 L136.4815,59.68 L134.0815,59.68 Z M138.8815,59.68 L138.8815,58.72 L141.2815,58.72 L141.2815,59.68 L138.8815,59.68 Z M143.681499,59.68 L143.681499,58.72 L146.081499,58.72 L146.081499,59.68 L143.681499,59.68 Z M148.481499,59.68 L148.481499,58.72 L150.881499,58.72 L150.881499,59.68 L148.481499,59.68 Z M153.281499,59.68 L153.281499,58.72 L155.681499,58.72 L155.681499,59.68 L153.281499,59.68 Z M158.081499,59.68 L158.081499,58.72 L160.481498,58.72 L160.481498,59.68 L158.081499,59.68 Z M162.881498,59.68 L162.881498,58.72 L163.069021,58.72 L163.069021,59.68 L162.881498,59.68 Z" fill="#009E84" fill-rule="nonzero"></path>
                                    <path id="Path-3" d="M338.608411,15.6536644 L338.608411,17.5999999 L337.648411,17.5999999 L337.648411,15.6536644 C335.442444,15.4101068 333.728411,13.5072175 333.728411,11.2 C333.728411,8.72791059 335.696163,6.72000003 338.128411,6.72000003 C340.560658,6.72000003 342.528411,8.72791059 342.528411,11.2 C342.528411,13.5072175 340.814378,15.4101068 338.608411,15.6536644 Z M338.128411,7.67999997 C336.230746,7.67999997 334.688411,9.25381141 334.688411,11.2 C334.688411,13.1461886 336.230746,14.72 338.128411,14.72 C340.026076,14.72 341.568411,13.1461886 341.568411,11.2 C341.568411,9.25381141 340.026076,7.67999997 338.128411,7.67999997 Z M337.648411,19.9999997 L338.608411,19.9999997 L338.608411,22.3999996 L337.648411,22.3999996 L337.648411,19.9999997 Z M337.648411,24.7999994 L338.608411,24.7999994 L338.608411,27.1999993 L337.648411,27.1999993 L337.648411,24.7999994 Z M337.648411,29.5999991 L338.608411,29.5999991 L338.608411,31.999999 L337.648411,31.999999 L337.648411,29.5999991 Z M337.648411,34.3999989 L338.608411,34.3999989 L338.608411,36.7999987 L337.648411,36.7999987 L337.648411,34.3999989 Z M337.648411,39.1999986 L338.608411,39.1999986 L338.608411,41.5999984 L337.648411,41.5999984 L337.648411,39.1999986 Z M337.648411,43.9999983 L338.608411,43.9999983 L338.608411,46.3999981 L337.648411,46.3999981 L337.648411,43.9999983 Z M337.648411,48.799998 L338.608411,48.799998 L338.608411,51.1999979 L337.648411,51.1999979 L337.648411,48.799998 Z M337.648411,53.5999977 L338.608411,53.5999977 L338.608411,55.2000002 C338.608411,55.5016276 338.578534,55.7996964 338.519704,56.0910353 L337.578697,55.901019 C337.624914,55.6721432 337.648411,55.4377257 337.648411,55.2000002 L337.648411,53.5999977 Z M336.521953,57.7809842 L337.17492,58.4847128 C336.504944,59.1063627 335.660456,59.5114796 334.746117,59.6377041 L334.614834,58.6867232 C335.332445,58.5876569 335.995247,58.2696984 336.521953,57.7809842 Z M332.251349,58.72 L332.251349,59.68 L329.851349,59.68 L329.851349,58.72 L332.251349,58.72 Z M327.451349,58.72 L327.451349,59.68 L325.051349,59.68 L325.051349,58.72 L327.451349,58.72 Z M322.651349,58.72 L322.651349,59.68 L320.25135,59.68 L320.25135,58.72 L322.651349,58.72 Z M317.85135,58.72 L317.85135,59.68 L315.45135,59.68 L315.45135,58.72 L317.85135,58.72 Z M313.05135,58.72 L313.05135,59.68 L310.65135,59.68 L310.65135,58.72 L313.05135,58.72 Z M308.25135,58.72 L308.25135,59.68 L305.85135,59.68 L305.85135,58.72 L308.25135,58.72 Z M303.451351,58.72 L303.451351,59.68 L301.051351,59.68 L301.051351,58.72 L303.451351,58.72 Z M298.651351,58.72 L298.651351,59.68 L296.251351,59.68 L296.251351,58.72 L298.651351,58.72 Z M293.851351,58.72 L293.851351,59.68 L291.451351,59.68 L291.451351,58.72 L293.851351,58.72 Z M289.051351,58.72 L289.051351,59.68 L286.651352,59.68 L286.651352,58.72 L289.051351,58.72 Z M284.251352,58.72 L284.251352,59.68 L281.851352,59.68 L281.851352,58.72 L284.251352,58.72 Z M279.451352,58.72 L279.451352,59.68 L277.051352,59.68 L277.051352,58.72 L279.451352,58.72 Z M274.651352,58.72 L274.651352,59.68 L272.251352,59.68 L272.251352,58.72 L274.651352,58.72 Z M269.851353,58.72 L269.851353,59.68 L267.451353,59.68 L267.451353,58.72 L269.851353,58.72 Z M265.051353,58.72 L265.051353,59.68 L262.651353,59.68 L262.651353,58.72 L265.051353,58.72 Z M260.251353,58.72 L260.251353,59.68 L257.851353,59.68 L257.851353,58.72 L260.251353,58.72 Z M255.451353,58.72 L255.451353,59.68 L253.051354,59.68 L253.051354,58.72 L255.451353,58.72 Z M250.651354,58.72 L250.651354,59.68 L248.251354,59.68 L248.251354,58.72 L250.651354,58.72 Z M245.851354,58.72 L245.851354,59.68 L243.451354,59.68 L243.451354,58.72 L245.851354,58.72 Z M241.051354,58.72 L241.051354,59.68 L238.651354,59.68 L238.651354,58.72 L241.051354,58.72 Z M236.251355,58.72 L236.251355,59.68 L233.851355,59.68 L233.851355,58.72 L236.251355,58.72 Z M231.451355,58.72 L231.451355,59.68 L229.051355,59.68 L229.051355,58.72 L231.451355,58.72 Z M226.651355,58.72 L226.651355,59.68 L224.251355,59.68 L224.251355,58.72 L226.651355,58.72 Z M221.851355,58.72 L221.851355,59.68 L219.451356,59.68 L219.451356,58.72 L221.851355,58.72 Z M217.051356,58.72 L217.051356,59.68 L214.651356,59.68 L214.651356,58.72 L217.051356,58.72 Z M212.251356,58.72 L212.251356,59.68 L209.851356,59.68 L209.851356,58.72 L212.251356,58.72 Z M207.451356,58.72 L207.451356,59.68 L205.051356,59.68 L205.051356,58.72 L207.451356,58.72 Z M202.651357,58.72 L202.651357,59.68 L200.251357,59.68 L200.251357,58.72 L202.651357,58.72 Z M197.851357,58.72 L197.851357,59.68 L195.451357,59.68 L195.451357,58.72 L197.851357,58.72 Z M193.051357,58.72 L193.051357,59.68 L190.651357,59.68 L190.651357,58.72 L193.051357,58.72 Z M188.251357,58.72 L188.251357,59.68 L185.851358,59.68 L185.851358,58.72 L188.251357,58.72 Z M183.451358,58.72 L183.451358,59.68 L181.051358,59.68 L181.051358,58.72 L183.451358,58.72 Z M178.651358,58.72 L178.651358,59.68 L176.251358,59.68 L176.251358,58.72 L178.651358,58.72 Z M173.851358,58.72 L173.851358,59.68 L171.451358,59.68 L171.451358,58.72 L173.851358,58.72 Z M169.051359,58.72 L169.051359,59.68 L166.651359,59.68 L166.651359,58.72 L169.051359,58.72 Z M164.251359,58.72 L164.251359,59.68 L163.069021,59.68 L163.069021,58.72 L164.251359,58.72 Z" fill="#009E84" fill-rule="nonzero"></path>
                                    <path id="Path-4" d="M176.344266,4.45306622 L176.346676,6.39875093 L175.386677,6.39994037 L175.384266,4.45425565 C173.177999,4.21343145 171.46161,2.31266733 171.458752,0.0054515893 C171.455689,-2.46663593 173.420952,-4.47698298 175.853197,-4.47999653 C178.285443,-4.48301008 180.255682,-2.4775391 180.258744,-0.0054515893 C180.261603,2.30176415 178.549929,4.20677564 176.344266,4.45306622 Z M175.854387,-3.51999733 C173.956723,-3.51764612 172.416339,-1.94192494 172.418751,0.00426215167 C172.421162,1.95044924 173.965446,3.52234853 175.863109,3.51999733 C177.760773,3.51764612 179.301157,1.94192494 179.298745,-0.00426215167 C179.296334,-1.95044924 177.75205,-3.52234853 175.854387,-3.51999733 Z M175.389651,8.79993839 L176.34965,8.79874895 L176.352624,11.198747 L175.392624,11.1999364 L175.389651,8.79993839 Z M175.395598,13.5999344 L176.355597,13.598745 L176.358571,15.998743 L175.398572,15.9999324 L175.395598,13.5999344 Z M175.401545,18.3999304 L176.361544,18.398741 L176.364518,20.798739 L175.404519,20.7999285 L175.401545,18.3999304 Z M175.407492,23.1999265 L176.367492,23.198737 L176.370465,25.5987351 L175.410466,25.5999245 L175.407492,23.1999265 Z M175.41344,27.9999225 L176.373439,27.9987331 L176.376412,30.3987311 L175.416413,30.3999205 L175.41344,27.9999225 Z M175.419387,32.7999185 L176.379386,32.7987291 L176.38236,35.1987271 L175.42236,35.1999165 L175.419387,32.7999185 Z M175.425334,37.5999146 L176.385333,37.5987251 L176.388307,39.9987231 L175.428307,39.9999126 L175.425334,37.5999146 Z M175.431281,42.3999106 L176.39128,42.3987212 L176.394254,44.7987192 L175.434255,44.7999086 L175.431281,42.3999106 Z M175.437228,47.1999066 L176.397227,47.1987172 L176.400201,49.5987152 L175.440202,49.5999046 L175.437228,47.1999066 Z M175.443175,51.9999027 L176.403175,51.9987132 L176.406148,54.3987112 L175.446149,54.3999007 L175.443175,51.9999027 Z M175.449123,56.7998987 L176.409122,56.7987092 L176.412095,59.1987073 L175.452096,59.1998967 L175.449123,56.7998987 Z" fill="#009E84" fill-rule="nonzero"></path>
                                    <ellipse id="Oval" fill="#B4EDE4" cx="176.258427" cy="62" rx="14.788122" ry="14.8"></ellipse>
                                    <path d="M182.813162,58.96 L174.020225,67.76 C173.860353,67.92 173.700482,68 173.460674,68 C173.220867,68 173.060995,67.92 172.901124,67.76 L168.904334,63.76 C168.584591,63.44 168.584591,62.96 168.904334,62.64 C169.224077,62.32 169.703692,62.32 170.023435,62.64 L173.460674,66.08 L181.694061,57.84 C182.013804,57.52 182.493419,57.52 182.813162,57.84 C183.132905,58.16 183.132905,58.64 182.813162,58.96 Z" id="check-icon" fill="#35B09B" fill-rule="nonzero"></path>
                                </g>
                                <g id="tablet" transform="translate(391.685393, 210.800000) rotate(90.000000) translate(-391.685393, -210.800000) translate(344.523274, 136.800000)">
                                    <path d="M6.54669387,0.836647641 L87.942352,0.836647641 C91.0966869,0.836647641 93.6537806,3.39374134 93.6537806,6.54807627 L93.6537806,141.857186 C93.6537806,145.011521 91.0966869,147.568615 87.942352,147.568615 L6.54669387,147.568615 C3.39235894,147.568615 0.835265248,145.011521 0.835265248,141.857186 L0.835265248,6.54807627 C0.835265248,3.39374134 3.39235894,0.836647641 6.54669387,0.836647641 Z" id="Rectangle" stroke="#3F3D56" stroke-width="0.5" fill="#F7FBFF" transform="translate(47.244523, 74.202631) rotate(-0.080000) translate(-47.244523, -74.202631) "></path>
                                    <rect id="Rectangle" fill="#E9F3FD" fill-rule="nonzero" x="7.19422151" y="12" width="80.153899" height="123.067858"></rect>
                                    <g id="play-icon" transform="translate(47.162119, 74.000000) rotate(-90.000000) translate(-47.162119, -74.000000) translate(24.780096, 52.000000)">
                                        <path d="M33.8111501,39.2857143 C40.907166,35.4584059 45.1636677,27.853888 44.7343664,19.7706762 C44.305065,11.6874644 39.2672962,4.58169244 31.8062292,1.53554136 C24.3451622,-1.51060972 15.8048558,0.0516027305 9.88973086,5.54455753 M19.8272237,15.0424096 L19.8272237,11.4867989 L32.2932363,20.8847188 L29.4234944,22.8751547" id="Shape" stroke="#3F3D56" stroke-width="0.5"></path>
                                        <path d="M20.820486,2.0952381 C9.32164911,2.0952381 0,11.4759386 0,23.047619 C0,34.6192995 9.32164911,44 20.820486,44 C32.3193229,44 41.640972,34.6192995 41.640972,23.047619 C41.6356489,11.4781582 32.3171173,2.100595 20.820486,2.0952381 Z M16.6563888,32.4761905 L16.6563888,13.6190476 L29.1486804,23.047619 L16.6563888,32.4761905 Z" id="Shape" fill="#73B3F4" fill-rule="nonzero"></path>
                                    </g>
                                    <ellipse id="Oval" fill="#CCD8E3" fill-rule="nonzero" cx="47.3824882" cy="141.431586" rx="3.30218304" ry="3.39583079"></ellipse>
                                    <ellipse id="Oval" fill="#CCD8E3" fill-rule="nonzero" transform="translate(33.445811, 6.742896) rotate(-0.080000) translate(-33.445811, -6.742896) " cx="33.4458107" cy="6.74289563" rx="1.10184066" ry="1.13306101"></ellipse>
                                    <path d="M39.4238202,6.0446793 L52.7863843,6.04459579 C53.0490925,6.04459427 53.2620607,6.25756008 53.2620623,6.52026823 C53.2620623,6.5202704 53.2620623,6.52027256 53.2620623,6.52027473 L53.2620478,6.70198801 C53.2620458,6.96469362 53.049081,7.17765792 52.7863754,7.17765944 L39.4238113,7.17774945 C39.1611031,7.17775096 38.9481348,6.96478515 38.9481333,6.702077 C38.9481333,6.70207484 38.9481333,6.70207267 38.9481333,6.7020705 L38.9481478,6.52035723 C38.9481498,6.25765161 39.1611146,6.04468731 39.4238202,6.0446858 Z" id="Rectangle" fill="#CCD8E3" fill-rule="nonzero" transform="translate(46.105098, 6.611173) rotate(-0.080000) translate(-46.105098, -6.611173) "></path>
                                </g>
                                <g id="phone" transform="translate(23.181380, 187.200000)">
                                    <path d="M3.66412755,0.202183153 L53.0883438,0.202183153 C55.0000619,0.202183153 56.5498156,1.75193687 56.5498156,3.66365497 L56.5498156,85.2800206 C56.5498156,87.1917387 55.0000619,88.7414924 53.0883438,88.7414924 L3.66412755,88.7414924 C1.75240946,88.7414924 0.202655736,87.1917387 0.202655736,85.2800206 L0.202655736,3.66365497 C0.202655736,1.75193687 1.75240946,0.202183153 3.66412755,0.202183153 Z" id="Rectangle" stroke="#3F3D56" stroke-width="0.5" fill="#F7FBFF" transform="translate(28.376236, 44.471838) rotate(-0.080000) translate(-28.376236, -44.471838) "></path>
                                    <rect id="Rectangle" fill="#E9F3FD" fill-rule="nonzero" x="4.05388672" y="7.06363636" width="48.6588023" height="74.2602642"></rect>
                                    <g id="play-icon" transform="translate(17.229019, 33.804545)">
                                        <path d="M16.4581379,18.9204545 C19.9122413,17.0771786 21.9841642,13.4147547 21.7751946,9.5217864 C21.5662251,5.62881808 19.1140075,2.20659609 15.4822094,0.739534486 C11.8504114,-0.727527119 7.69327562,0.0248524721 4.81399048,2.67032306 M9.65122989,7.24459849 L9.65122989,5.53217525 L15.7192683,10.0583222 L14.3223738,11.0169392" id="Shape" stroke="#3F3D56" stroke-width="0.5"></path>
                                        <path d="M10.1347168,1.00909091 C4.53746727,1.00909091 0,5.5269448 0,11.1 C0,16.6730552 4.53746727,21.1909091 10.1347168,21.1909091 C15.7319663,21.1909091 20.2694336,16.6730552 20.2694336,11.1 C20.2668425,5.5280138 15.7308927,1.01167086 10.1347168,1.00909091 Z M8.10777345,15.6409091 L8.10777345,6.55909091 L14.1886035,11.1 L8.10777345,15.6409091 Z" id="Shape" fill="#73B3F4" fill-rule="nonzero"></path>
                                    </g>
                                    <ellipse id="Oval" fill="#CCD8E3" fill-rule="nonzero" cx="28.46016" cy="85.0383668" rx="2.00464698" ry="2.04907517"></ellipse>
                                    <ellipse id="Oval" fill="#CCD8E3" fill-rule="nonzero" transform="translate(19.999660, 3.765986) rotate(-0.080000) translate(-19.999660, -3.765986) " cx="19.9996603" cy="3.76598631" rx="1" ry="1"></ellipse>
                                    <path d="M23.6282321,3.34464215 L31.7411623,3.34466708 C31.9003787,3.34466753 32.029449,3.47373782 32.0294494,3.63295423 L32.0294531,3.74007758 C32.0294535,3.89929464 31.900383,4.02836594 31.7411659,4.0283664 C31.7411654,4.0283664 31.7411648,4.0283664 31.7411642,4.0283664 L23.6282341,4.02833981 C23.4690177,4.02833936 23.3399474,3.89926907 23.3399469,3.74005266 L23.3399433,3.63292931 C23.3399428,3.47371225 23.4690134,3.34464095 23.6282304,3.34464049 C23.628231,3.34464049 23.6282315,3.34464049 23.6282321,3.34464049 Z" id="Rectangle" fill="#CCD8E3" fill-rule="nonzero" transform="translate(27.684698, 3.686503) rotate(-0.080000) translate(-27.684698, -3.686503) "></path>
                                </g>
                            </g>
                        </g>
                    </g>
                </g>
            </g>
        </g>
    </g>
</svg>
