<?xml version="1.0" encoding="UTF-8"?>
<svg viewBox="0 0 336 241" version="1.1" xmlns="http://www.w3.org/2000/svg" xmlns:xlink="http://www.w3.org/1999/xlink">  
    <g id="Page-1" stroke="none" stroke-width="1" fill="none" fill-rule="evenodd">
        <g id="home" transform="translate(-264.000000, -451.000000)">
            <g id="content" transform="translate(220.000000, 370.000000)">
                <g id="wt">
                    <g id="content" transform="translate(45.000000, 45.000000)">
                        <g id="art" transform="translate(0.000000, 37.000000)">
                            <g id="video-player" transform="translate(36.258876, 38.591999)">
                                <rect id="Rectangle" fill="#E9F3FD" fill-rule="nonzero" x="0" y="7.48799985" width="238.272612" height="91.0079982" rx="4.57035546"></rect>
                                <rect id="Rectangle" stroke="#3F3D56" stroke-width="0.5" x="12.0862919" y="0" width="238.272612" height="91.0079982" rx="5.53096089"></rect>
                                <g id="play-icon" transform="translate(88.632807, 24.192000)">
                                    <path d="M37.3854709,43.1999991 C45.2316369,38.9913518 49.9381116,30.6291475 49.463427,21.740554 C48.9887424,12.8519606 43.4184095,5.03819552 35.1686013,1.68853709 C26.9187931,-1.66112135 17.4756545,0.0567442378 10.9352165,6.09699696 M21.923244,16.5411802 L21.923244,12.6313015 L35.707092,22.9655958 L32.5339775,25.1543515" id="Shape" stroke="#3F3D56" stroke-width="0.5"></path>
                                    <path d="M23.0215084,2.30399995 C10.3070804,2.30399995 0,12.6193591 0,25.3439995 C0,38.0686399 10.3070804,48.383999 23.0215084,48.383999 C35.7359364,48.383999 46.0430167,38.0686399 46.0430167,25.3439995 C46.0371308,12.6217999 35.7334975,2.3098906 23.0215084,2.30399995 Z M18.4172067,35.7119993 L18.4172067,14.9759997 L32.2301117,25.3439995 L18.4172067,35.7119993 Z" id="Shape" fill="#73B3F4" fill-rule="nonzero"></path>
                                </g>
                            </g>
                            <rect id="tv-frame" stroke="#3F3D56" stroke-width="0.5" x="0" y="0" width="322.876655" height="175.679997" rx="4.71322302"></rect>
                            <g id="connectors" transform="translate(36.258876, 183.743996)">
                                <path id="Path-2" d="M47.04668,42.2783992 L47.04668,42.9695991 L45.3186802,42.9695991 L45.3186802,42.2783992 L47.04668,42.2783992 Z M95.4306746,42.2783992 L95.4306746,42.9695991 L93.7026748,42.9695991 L93.7026748,42.2783992 L95.4306746,42.2783992 Z M50.5026796,42.2783992 L50.5026796,42.9695991 L48.7746798,42.9695991 L48.7746798,42.2783992 L50.5026796,42.2783992 Z M112.710673,42.2783992 L112.710673,42.9695991 L110.982673,42.9695991 L110.982673,42.2783992 L112.710673,42.2783992 Z M109.254673,42.2783992 L109.254673,42.9695991 L107.526673,42.9695991 L107.526673,42.2783992 L109.254673,42.2783992 Z M105.798673,42.2783992 L105.798673,42.9695991 L104.070674,42.9695991 L104.070674,42.2783992 L105.798673,42.2783992 Z M102.342674,42.2783992 L102.342674,42.9695991 L100.614674,42.9695991 L100.614674,42.2783992 L102.342674,42.2783992 Z M98.8866742,42.2783992 L98.8866742,42.9695991 L97.1586744,42.9695991 L97.1586744,42.2783992 L98.8866742,42.2783992 Z M5.57468467,42.2783992 L5.57468467,42.9695991 L3.84668486,42.9695991 L3.84668486,42.2783992 L5.57468467,42.2783992 Z M9.03068428,42.2783992 L9.03068428,42.9695991 L7.30268447,42.9695991 L7.30268447,42.2783992 L9.03068428,42.2783992 Z M12.4866839,42.2783992 L12.4866839,42.9695991 L10.7586841,42.9695991 L10.7586841,42.2783992 L12.4866839,42.2783992 Z M15.9426835,42.2783992 L15.9426835,42.9695991 L14.2146837,42.9695991 L14.2146837,42.2783992 L15.9426835,42.2783992 Z M19.3986831,42.2783992 L19.3986831,42.9695991 L17.6706833,42.9695991 L17.6706833,42.2783992 L19.3986831,42.2783992 Z M22.8546827,42.2783992 L22.8546827,42.9695991 L21.1266829,42.9695991 L21.1266829,42.2783992 L22.8546827,42.2783992 Z M26.3106823,42.2783992 L26.3106823,42.9695991 L24.5826825,42.9695991 L24.5826825,42.2783992 L26.3106823,42.2783992 Z M29.766682,42.2783992 L29.766682,42.9695991 L28.0386822,42.9695991 L28.0386822,42.2783992 L29.766682,42.2783992 Z M33.2226816,42.2783992 L33.2226816,42.9695991 L31.4946818,42.9695991 L31.4946818,42.2783992 L33.2226816,42.2783992 Z M36.6786812,42.2783992 L36.6786812,42.9695991 L34.9506814,42.9695991 L34.9506814,42.2783992 L36.6786812,42.2783992 Z M40.1346808,42.2783992 L40.1346808,42.9695991 L38.406681,42.9695991 L38.406681,42.2783992 L40.1346808,42.2783992 Z M43.5906804,42.2783992 L43.5906804,42.9695991 L41.8626806,42.9695991 L41.8626806,42.2783992 L43.5906804,42.2783992 Z M91.974675,42.2783992 L91.974675,42.9695991 L90.2466752,42.9695991 L90.2466752,42.2783992 L91.974675,42.2783992 Z M116.166672,42.2783992 L116.166672,42.9695991 L114.438672,42.9695991 L114.438672,42.2783992 L116.166672,42.2783992 Z M53.9586792,42.2783992 L53.9586792,42.9695991 L52.2306794,42.9695991 L52.2306794,42.2783992 L53.9586792,42.2783992 Z M57.4146789,42.2783992 L57.4146789,42.9695991 L55.6866791,42.9695991 L55.6866791,42.2783992 L57.4146789,42.2783992 Z M60.8706785,42.2783992 L60.8706785,42.9695991 L59.1426787,42.9695991 L59.1426787,42.2783992 L60.8706785,42.2783992 Z M64.3266781,42.2783992 L64.3266781,42.9695991 L62.5986783,42.9695991 L62.5986783,42.2783992 L64.3266781,42.2783992 Z M67.7826777,42.2783992 L67.7826777,42.9695991 L66.0546779,42.9695991 L66.0546779,42.2783992 L67.7826777,42.2783992 Z M71.2386773,42.2783992 L71.2386773,42.9695991 L69.5106775,42.9695991 L69.5106775,42.2783992 L71.2386773,42.2783992 Z M74.6946769,42.2783992 L74.6946769,42.9695991 L72.9666771,42.9695991 L72.9666771,42.2783992 L74.6946769,42.2783992 Z M78.1506765,42.2783992 L78.1506765,42.9695991 L76.4226767,42.9695991 L76.4226767,42.2783992 L78.1506765,42.2783992 Z M81.6066761,42.2783992 L81.6066761,42.9695991 L79.8786763,42.9695991 L79.8786763,42.2783992 L81.6066761,42.2783992 Z M85.0626758,42.2783992 L85.0626758,42.9695991 L83.334676,42.9695991 L83.334676,42.2783992 L85.0626758,42.2783992 Z M88.5186754,42.2783992 L88.5186754,42.9695991 L86.7906756,42.9695991 L86.7906756,42.2783992 L88.5186754,42.2783992 Z M0.908172436,41.3363473 C1.23399942,41.7392508 1.67577282,42.0347217 2.17418282,42.1789098 L2.17418282,42.1789098 L1.98209775,42.8428833 C1.34703793,42.6591628 0.784997698,42.283254 0.370723642,41.7709807 L0.370723642,41.7709807 Z M0.345599973,38.207198 L0.346977463,39.8284679 L0.351101331,39.9125256 L-0.338619955,39.9577131 C-0.343267109,39.8867812 -0.345599973,39.8155172 -0.345599973,39.7439994 L-0.345599973,39.7439994 L-0.345599973,38.207198 L0.345599973,38.207198 Z M0.345599973,34.7511984 L0.345599973,36.4791982 L-0.345599973,36.4791982 L-0.345599973,34.7511984 L0.345599973,34.7511984 Z M0.345599973,31.2951988 L0.345599973,33.0231986 L-0.345599973,33.0231986 L-0.345599973,31.2951988 L0.345599973,31.2951988 Z M0.345599973,27.8391992 L0.345599973,29.567199 L-0.345599973,29.567199 L-0.345599973,27.8391992 L0.345599973,27.8391992 Z M-2.1431319e-16,17.0375996 C2.06161047,17.0375996 3.72799986,18.7619264 3.72799986,20.8831996 C3.72799986,22.8845198 2.24474268,24.5325171 0.345716324,24.7124983 L0.345599973,26.1111994 L-0.345599973,26.1111994 L-0.345716324,24.7124983 C-2.24474268,24.5325171 -3.72799986,22.8845198 -3.72799986,20.8831996 C-3.72799986,18.7619264 -2.06161047,17.0375996 -2.1431319e-16,17.0375996 Z M-2.1431319e-16,17.7287996 C-1.67448528,17.7287996 -3.03679992,19.1384795 -3.03679992,20.8831996 C-3.03679992,22.6279197 -1.67448528,24.0375996 2.1431319e-16,24.0375996 C1.67448528,24.0375996 3.03679992,22.6279197 3.03679992,20.8831996 C3.03679992,19.1384795 1.67448528,17.7287996 -2.1431319e-16,17.7287996 Z" fill="#009E84" fill-rule="nonzero"></path>
                                <path id="Path-3" d="M197.128972,42.2783992 L197.128972,42.9695991 L195.400972,42.9695991 L195.400972,42.2783992 L197.128972,42.2783992 Z M148.744978,42.2783992 L148.744978,42.9695991 L147.016978,42.9695991 L147.016978,42.2783992 L148.744978,42.2783992 Z M193.672972,42.2783992 L193.672972,42.9695991 L191.944973,42.9695991 L191.944973,42.2783992 L193.672972,42.2783992 Z M121.096981,42.2783992 L121.096981,42.9695991 L119.368981,42.9695991 L119.368981,42.2783992 L121.096981,42.2783992 Z M124.55298,42.2783992 L124.55298,42.9695991 L122.82498,42.9695991 L122.82498,42.2783992 L124.55298,42.2783992 Z M128.00898,42.2783992 L128.00898,42.9695991 L126.28098,42.9695991 L126.28098,42.2783992 L128.00898,42.2783992 Z M131.464979,42.2783992 L131.464979,42.9695991 L129.73698,42.9695991 L129.73698,42.2783992 L131.464979,42.2783992 Z M134.920979,42.2783992 L134.920979,42.9695991 L133.192979,42.9695991 L133.192979,42.2783992 L134.920979,42.2783992 Z M138.376979,42.2783992 L138.376979,42.9695991 L136.648979,42.9695991 L136.648979,42.2783992 L138.376979,42.2783992 Z M141.832978,42.2783992 L141.832978,42.9695991 L140.104978,42.9695991 L140.104978,42.2783992 L141.832978,42.2783992 Z M145.288978,42.2783992 L145.288978,42.9695991 L143.560978,42.9695991 L143.560978,42.2783992 L145.288978,42.2783992 Z M241.800921,41.9613657 L242.136511,42.565631 C241.661873,42.8292302 241.126944,42.9695991 240.572451,42.9695991 L240.572451,42.9695991 L240.328967,42.9695991 L240.328967,42.2783992 L240.572451,42.2783992 C241.008755,42.2783992 241.428299,42.168308 241.800921,41.9613657 L241.800921,41.9613657 Z M238.600967,42.2783992 L238.600967,42.9695991 L236.872968,42.9695991 L236.872968,42.2783992 L238.600967,42.2783992 Z M235.144968,42.2783992 L235.144968,42.9695991 L233.416968,42.9695991 L233.416968,42.2783992 L235.144968,42.2783992 Z M231.688968,42.2783992 L231.688968,42.9695991 L229.960968,42.9695991 L229.960968,42.2783992 L231.688968,42.2783992 Z M228.232969,42.2783992 L228.232969,42.9695991 L226.504969,42.9695991 L226.504969,42.2783992 L228.232969,42.2783992 Z M224.776969,42.2783992 L224.776969,42.9695991 L223.048969,42.9695991 L223.048969,42.2783992 L224.776969,42.2783992 Z M221.320969,42.2783992 L221.320969,42.9695991 L219.59297,42.9695991 L219.59297,42.2783992 L221.320969,42.2783992 Z M217.86497,42.2783992 L217.86497,42.9695991 L216.13697,42.9695991 L216.13697,42.2783992 L217.86497,42.2783992 Z M214.40897,42.2783992 L214.40897,42.9695991 L212.68097,42.9695991 L212.68097,42.2783992 L214.40897,42.2783992 Z M210.952971,42.2783992 L210.952971,42.9695991 L209.224971,42.9695991 L209.224971,42.2783992 L210.952971,42.2783992 Z M207.496971,42.2783992 L207.496971,42.9695991 L205.768971,42.9695991 L205.768971,42.2783992 L207.496971,42.2783992 Z M204.040971,42.2783992 L204.040971,42.9695991 L202.312972,42.9695991 L202.312972,42.2783992 L204.040971,42.2783992 Z M200.584972,42.2783992 L200.584972,42.9695991 L198.856972,42.9695991 L198.856972,42.2783992 L200.584972,42.2783992 Z M152.200977,42.2783992 L152.200977,42.9695991 L150.472977,42.9695991 L150.472977,42.2783992 L152.200977,42.2783992 Z M117.640981,42.2783992 L117.640981,42.9695991 L117.409693,42.9695991 L117.409693,42.2783992 L117.640981,42.2783992 Z M190.216973,42.2783992 L190.216973,42.9695991 L188.488973,42.9695991 L188.488973,42.2783992 L190.216973,42.2783992 Z M186.760973,42.2783992 L186.760973,42.9695991 L185.032973,42.9695991 L185.032973,42.2783992 L186.760973,42.2783992 Z M183.304974,42.2783992 L183.304974,42.9695991 L181.576974,42.9695991 L181.576974,42.2783992 L183.304974,42.2783992 Z M179.848974,42.2783992 L179.848974,42.9695991 L178.120974,42.9695991 L178.120974,42.2783992 L179.848974,42.2783992 Z M176.392974,42.2783992 L176.392974,42.9695991 L174.664975,42.9695991 L174.664975,42.2783992 L176.392974,42.2783992 Z M172.936975,42.2783992 L172.936975,42.9695991 L171.208975,42.9695991 L171.208975,42.2783992 L172.936975,42.2783992 Z M169.480975,42.2783992 L169.480975,42.9695991 L167.752975,42.9695991 L167.752975,42.2783992 L169.480975,42.2783992 Z M166.024976,42.2783992 L166.024976,42.9695991 L164.296976,42.9695991 L164.296976,42.2783992 L166.024976,42.2783992 Z M162.568976,42.2783992 L162.568976,42.9695991 L160.840976,42.9695991 L160.840976,42.2783992 L162.568976,42.2783992 Z M159.112976,42.2783992 L159.112976,42.9695991 L157.384977,42.9695991 L157.384977,42.2783992 L159.112976,42.2783992 Z M155.656977,42.2783992 L155.656977,42.9695991 L153.928977,42.9695991 L153.928977,42.2783992 L155.656977,42.2783992 Z M243.798051,39.2119967 L243.798051,39.7439994 C243.798051,40.201163 243.70268,40.6455501 243.520542,41.0546822 L243.520542,41.0546822 L242.889088,40.7735702 C243.032024,40.4524981 243.106851,40.1038362 243.106851,39.7439994 L243.106851,39.7439994 L243.106851,39.2119967 L243.798051,39.2119967 Z M243.798051,35.7559971 L243.798051,37.4839969 L243.106851,37.4839969 L243.106851,35.7559971 L243.798051,35.7559971 Z M243.798051,32.2999975 L243.798051,34.0279973 L243.106851,34.0279973 L243.106851,32.2999975 L243.798051,32.2999975 Z M243.798051,28.8439979 L243.798051,30.5719977 L243.106851,30.5719977 L243.106851,28.8439979 L243.798051,28.8439979 Z M243.798051,25.3879983 L243.798051,27.1159981 L243.106851,27.1159981 L243.106851,25.3879983 L243.798051,25.3879983 Z M243.798051,21.9319987 L243.798051,23.6599985 L243.106851,23.6599985 L243.106851,21.9319987 L243.798051,21.9319987 Z M243.798051,18.4759991 L243.798051,20.2039989 L243.106851,20.2039989 L243.106851,18.4759991 L243.798051,18.4759991 Z M243.798051,15.0199995 L243.798051,16.7479993 L243.106851,16.7479993 L243.106851,15.0199995 L243.798051,15.0199995 Z M243.452451,4.21839987 C245.514061,4.21839987 247.180451,5.94272669 247.180451,8.06399984 C247.180451,10.0652536 245.697292,11.7132079 243.798357,11.8932806 L243.798051,13.2919996 L243.106851,13.2919996 L243.106546,11.8932806 C241.20761,11.7132079 239.724451,10.0652536 239.724451,8.06399984 C239.724451,5.94272669 241.390841,4.21839987 243.452451,4.21839987 Z M243.452451,4.90959981 C241.777966,4.90959981 240.415651,6.31927974 240.415651,8.06399984 C240.415651,9.80871994 241.777966,11.2183999 243.452451,11.2183999 C245.126936,11.2183999 246.489251,9.80871994 246.489251,8.06399984 C246.489251,6.31927974 245.126936,4.90959981 243.452451,4.90959981 Z" fill="#009E84" fill-rule="nonzero"></path>
                                <path id="Path-4" d="M127.015333,41.5149675 L127.016707,42.623571 L126.325507,42.6244274 L126.324134,41.5158239 L127.015333,41.5149675 Z M127.011051,38.0589706 L127.013192,39.7869691 L126.321993,39.7878255 L126.319852,38.059827 L127.011051,38.0589706 Z M127.006769,34.6029736 L127.00891,36.3309721 L126.317711,36.3318285 L126.31557,34.60383 L127.006769,34.6029736 Z M127.002487,31.1469767 L127.004628,32.8749751 L126.313429,32.8758315 L126.311288,31.1478331 L127.002487,31.1469767 Z M126.998205,27.6909797 L127.000346,29.4189782 L126.309147,29.4198346 L126.307006,27.6918361 L126.998205,27.6909797 Z M126.993923,24.2349827 L126.996064,25.9629812 L126.304865,25.9638376 L126.302724,24.2358391 L126.993923,24.2349827 Z M126.989641,20.7789858 L126.991782,22.5069843 L126.300583,22.5078407 L126.298442,20.7798422 L126.989641,20.7789858 Z M126.985359,17.3229888 L126.9875,19.0509873 L126.296301,19.0518437 L126.29416,17.3238452 L126.985359,17.3229888 Z M126.981077,13.8669919 L126.983218,15.5949903 L126.292019,15.5958467 L126.289878,13.8678483 L126.981077,13.8669919 Z M126.976795,10.4109949 L126.978936,12.1389934 L126.287737,12.1398498 L126.285596,10.4118513 L126.976795,10.4109949 Z M126.972514,6.95499795 L126.974654,8.68299643 L126.283455,8.68385282 L126.281314,6.95585434 L126.972514,6.95499795 Z M126.613531,-3.84559702 C128.67514,-3.84815135 130.343665,-2.1258905 130.346293,-0.00461898291 C130.348773,1.99669968 128.867558,3.6465335 126.968757,3.82886741 L126.970373,5.22699947 L126.279173,5.22785586 L126.277324,3.8297241 C124.378077,3.65209596 122.892779,2.00593765 122.890299,0.00461898291 C122.887671,-2.11665254 124.551922,-3.84304269 126.613531,-3.84559702 Z M126.614388,-3.15439761 C124.939904,-3.15232292 123.579337,-1.74095617 123.581498,0.00376258784 C123.58366,1.74848135 124.94772,3.15647229 126.622204,3.15439761 C128.296688,3.15232292 129.657255,1.74095617 129.655094,-0.00376258784 C129.652932,-1.74848135 128.288872,-3.15647229 126.614388,-3.15439761 Z" fill="#009E84" fill-rule="nonzero"></path>
                                <ellipse id="Oval" fill="#B4EDE4" cx="126.906065" cy="44.6399991" rx="10.6474476" ry="10.6559998"></ellipse>
                                <path d="M131.625474,42.4511992 L125.294559,48.787199 C125.179452,48.902399 125.064344,48.959999 124.891683,48.959999 C124.719022,48.959999 124.603914,48.902399 124.488807,48.787199 L121.611118,45.9071991 C121.380903,45.6767991 121.380903,45.3311991 121.611118,45.1007991 C121.841333,44.8703991 122.186656,44.8703991 122.416871,45.1007991 L124.891683,47.5775991 L130.819721,41.6447992 C131.049936,41.4143992 131.395259,41.4143992 131.625474,41.6447992 C131.855689,41.8751992 131.855689,42.2207992 131.625474,42.4511992 Z" id="check-icon" fill="#35B09B" fill-rule="nonzero"></path>
                            </g>
                            <g id="tablet" transform="translate(281.793476, 151.819272) rotate(90.000000) translate(-281.793476, -151.819272) translate(247.793476, 98.319272)">
                                <path d="M4.7136195,0.60238629 L63.3184922,0.60238629 C65.5896133,0.60238629 67.4307207,2.44349371 67.4307207,4.71461482 L67.4307207,102.137172 C67.4307207,104.408293 65.5896133,106.249401 63.3184922,106.249401 L4.7136195,106.249401 C2.44249839,106.249401 0.601390967,104.408293 0.601390967,102.137172 L0.601390967,4.71461482 C0.601390967,2.44349371 2.44249839,0.60238629 4.7136195,0.60238629 Z" id="Rectangle" stroke="#3F3D56" stroke-width="0.5" fill="#F7FBFF" transform="translate(34.016056, 53.425893) rotate(-0.080000) translate(-34.016056, -53.425893) "></path>
                                <rect id="Rectangle" fill="#E9F3FD" fill-rule="nonzero" x="5.17983938" y="8.63999983" width="57.7108061" height="88.6088559"></rect>
                                <g id="play-icon" transform="translate(34.116725, 52.895055) rotate(-90.000000) translate(-34.116725, -52.895055) translate(17.616725, 36.895055)">
                                    <path d="M24.3440276,28.2857137 C29.4531589,25.5300518 32.5178401,20.0547989 32.2087432,14.2348866 C31.8996462,8.41497419 28.2724527,3.29881849 22.9004845,1.10558976 C17.5285164,-1.08763898 11.3794959,0.0371539652 7.12060608,3.99208134 M14.2756008,10.8305347 L14.2756008,8.27049504 L23.2511297,15.0369972 L21.1849156,16.4701111" id="Shape" stroke="#3F3D56" stroke-width="0.5"></path>
                                    <path d="M14.9907496,1.5085714 C6.71158722,1.5085714 0,8.26267561 0,16.5942854 C0,24.9258952 6.71158722,31.6799994 14.9907496,31.6799994 C23.269912,31.6799994 29.9814993,24.9258952 29.9814993,16.5942854 C29.9776666,8.26427374 23.268324,1.51242837 14.9907496,1.5085714 Z M11.9925997,23.3828567 L11.9925997,9.80571409 L20.9870495,16.5942854 L11.9925997,23.3828567 Z" id="Shape" fill="#73B3F4" fill-rule="nonzero"></path>
                                </g>
                                <ellipse id="Oval" fill="#CCD8E3" fill-rule="nonzero" cx="34.1153908" cy="101.83074" rx="2.37757174" ry="2.44499812"></ellipse>
                                <ellipse id="Oval" fill="#CCD8E3" fill-rule="nonzero" transform="translate(24.080983, 4.854885) rotate(-0.080000) translate(-24.080983, -4.854885) " cx="24.0809832" cy="4.85488476" rx="1" ry="1"></ellipse>
                                <path d="M28.3851435,4.35216901 L38.006196,4.35211356 C38.1953458,4.35211049 38.348683,4.50544587 38.3486841,4.69459574 C38.3486841,4.6945964 38.3486841,4.69459705 38.3486821,4.69459771 L38.3486821,4.82543127 C38.3486801,5.01458036 38.1953451,5.16791631 38.006196,5.16791937 L28.3851435,5.16797482 C28.1959937,5.16797788 28.0426565,5.0146425 28.0426554,4.82549264 C28.0426554,4.82549198 28.0426554,4.82549132 28.0426574,4.82549067 L28.0426574,4.69465711 C28.0426594,4.50550801 28.1959944,4.35217207 28.3851435,4.35216901 Z" id="Rectangle" fill="#CCD8E3" fill-rule="nonzero" transform="translate(33.195670, 4.760044) rotate(-0.080000) translate(-33.195670, -4.760044) "></path>
                            </g>
                            <g id="phone" transform="translate(16.690594, 134.783997)">
                                <path d="M2.63817179,0.145571867 L38.2236068,0.145571867 C39.6000438,0.145571867 40.7158664,1.26139452 40.7158664,2.63783153 L40.7158664,61.4016136 C40.7158664,62.7780506 39.6000438,63.8938732 38.2236068,63.8938732 L2.63817179,63.8938732 C1.26173478,63.8938732 0.145912127,62.7780506 0.145912127,61.4016136 L0.145912127,2.63783153 C0.145912127,1.26139452 1.26173478,0.145571867 2.63817179,0.145571867 Z" id="Rectangle" stroke="#3F3D56" stroke-width="0.5" fill="#F7FBFF" transform="translate(20.430889, 32.019723) rotate(-0.080000) translate(-20.430889, -32.019723) "></path>
                                <rect id="Rectangle" fill="#E9F3FD" fill-rule="nonzero" x="2.91879838" y="5.08581808" width="35.034337" height="53.4673892"></rect>
                                <g id="play-icon" transform="translate(12.404893, 24.339272)">
                                    <path d="M11.8498591,13.622727 C14.3368135,12.2955683 15.8285979,9.65862321 15.6781398,6.85568607 C15.5276817,4.05274894 13.7620851,1.58874915 11.1471906,0.53246482 C8.53229602,-0.523819515 5.53915833,0.0178937795 3.46607308,1.92263256 M6.94888538,5.21611081 L6.94888538,3.9831661 L11.3178729,7.24199185 L10.3121089,7.93219606" id="Shape" stroke="#3F3D56" stroke-width="0.5"></path>
                                    <path d="M7.29699596,0.72654544 C3.26697637,0.72654544 0,3.97940017 0,7.99199984 C0,12.0045995 3.26697637,15.2574542 7.29699596,15.2574542 C11.3270155,15.2574542 14.5939919,12.0045995 14.5939919,7.99199984 C14.5921263,3.98016985 11.3262425,0.728403003 7.29699596,0.72654544 Z M5.83759677,11.2614543 L5.83759677,4.72254536 L10.2157943,7.99199984 L5.83759677,11.2614543 Z" id="Shape" fill="#73B3F4" fill-rule="nonzero"></path>
                                </g>
                                <ellipse id="Oval" fill="#CCD8E3" fill-rule="nonzero" cx="20.4913148" cy="61.2276228" rx="1.4433458" ry="1.47533409"></ellipse>
                                <ellipse id="Oval" fill="#CCD8E3" fill-rule="nonzero" transform="translate(14.399755, 2.711510) rotate(-0.080000) translate(-14.399755, -2.711510) " cx="14.3997551" cy="2.71151009" rx="1" ry="1"></ellipse>
                                <path d="M17.0123262,2.4081423 L22.8536384,2.40815906 C22.9682744,2.40815998 23.0612052,2.50109095 23.0612057,2.615727 L23.0612057,2.69285581 C23.0612063,2.80749209 22.9682753,2.90042315 22.853639,2.90042315 C22.8536388,2.90042315 22.8536386,2.90042315 22.8536384,2.90042256 L17.0123262,2.9004058 C16.8976901,2.90040488 16.8047594,2.80747391 16.8047588,2.69283786 L16.8047588,2.61570905 C16.8047582,2.50107277 16.8976893,2.4081417 17.0123256,2.4081417 C17.0123258,2.4081417 17.012326,2.4081417 17.0123262,2.4081423 Z" id="Rectangle" fill="#CCD8E3" fill-rule="nonzero" transform="translate(19.932982, 2.654282) rotate(-0.080000) translate(-19.932982, -2.654282) "></path>
                            </g>
                        </g>
                    </g>
                </g>
            </g>
        </g>
    </g>
</svg>
