<?xml version="1.0" encoding="UTF-8"?>
<svg viewBox="0 0 362 241" version="1.1" xmlns="http://www.w3.org/2000/svg" xmlns:xlink="http://www.w3.org/1999/xlink">
    <defs>
        <rect id="path-1" x="0" y="0" width="362.096472" height="240.855182"></rect>
        <linearGradient x1="59.3069651%" y1="74.6552379%" x2="31.1885449%" y2="4.86304403%" id="linearGradient-3">
            <stop stop-color="#000000" stop-opacity="0.05" offset="0%"></stop>
            <stop stop-color="#000000" offset="100%"></stop>
        </linearGradient>
        <linearGradient x1="50%" y1="50%" x2="50%" y2="100%" id="linearGradient-4">
            <stop stop-color="#FFFFFF" offset="0%"></stop>
            <stop stop-color="#E0E0E0" offset="1.09092311%"></stop>
            <stop stop-color="#E0E0E0" offset="100%"></stop>
        </linearGradient>
        <rect id="path-5" x="0.547091045" y="32.9807381" width="40.1072352" height="7.95161425" rx="2.65049359"></rect>
        <rect id="path-6" x="0.547091045" y="0.22073895" width="40.1072352" height="7.95161425" rx="2.65049359"></rect>
        <linearGradient x1="88.2586947%" y1="0%" x2="88.2586956%" y2="100%" id="linearGradient-7">
            <stop stop-color="#000000" stop-opacity="0" offset="0%"></stop>
            <stop stop-color="#000000" stop-opacity="0" offset="50.0008072%"></stop>
            <stop stop-color="#000000" stop-opacity="0.25" offset="50.4494847%"></stop>
            <stop stop-color="#000000" stop-opacity="0.25" offset="100%"></stop>
        </linearGradient>
        <rect id="path-8" x="1.13686838e-13" y="30.0722884" width="72.3589842" height="21.8024091"></rect>
        <linearGradient x1="88.2586947%" y1="0%" x2="88.2586956%" y2="100%" id="linearGradient-9">
            <stop stop-color="#000000" stop-opacity="0" offset="0%"></stop>
            <stop stop-color="#000000" stop-opacity="0" offset="49.6275814%"></stop>
            <stop stop-color="#000000" stop-opacity="0.25" offset="50.0130794%"></stop>
            <stop stop-color="#000000" stop-opacity="0.25" offset="100%"></stop>
        </linearGradient>
        <path d="M129.051559,3.75903604 L129.051559,78.3521007 L129.028647,78.3529584 C128.359979,78.3779286 113.206203,78.9397569 103.418212,78.9397569 C89.767034,78.9397569 77.8782329,71.1314902 71.6951043,59.5955017 L71.6953106,60.1445767 L62.6390608,60.1445767 L62.638936,57.137036 L58.110936,57.1373479 L58.110936,27.0650595 L62.638936,27.065036 L62.6390608,23.3060235 L71.6700155,23.3053501 C77.8460358,11.7436365 89.7485471,3.91420704 103.418212,3.91420704 C112.983748,3.91420704 127.673943,3.77252251 128.960843,3.75992833 L129.051559,3.75903604 Z" id="path-10"></path>
        <linearGradient x1="50%" y1="0%" x2="50%" y2="100%" id="linearGradient-11">
            <stop stop-color="#FFFFFF" stop-opacity="0.5" offset="0%"></stop>
            <stop stop-color="#FFFFFF" stop-opacity="0" offset="49.7217185%"></stop>
            <stop stop-color="#000000" stop-opacity="0.5" offset="49.7767062%"></stop>
            <stop stop-color="#000000" stop-opacity="0.5" offset="100%"></stop>
        </linearGradient>
        <rect id="path-12" x="123.014059" y="-1.22124533e-15" width="8.30156228" height="81.9469858"></rect>
        <linearGradient x1="27.3932217%" y1="15.1473895%" x2="70.4552506%" y2="15.0891174%" id="linearGradient-13">
            <stop stop-color="#FFFFFF" stop-opacity="0" offset="0%"></stop>
            <stop stop-color="#FFFFFF" stop-opacity="0" offset="51.4432762%"></stop>
            <stop stop-color="#000000" stop-opacity="0.3" offset="51.6646683%"></stop>
            <stop stop-color="#000000" stop-opacity="0.3" offset="100%"></stop>
        </linearGradient>
        <path d="M93.5766406,52.6306324 C90.9795259,52.5125637 88.4773206,51.9340358 86.0699495,50.8950313 L86.0699495,45.0152398 C87.4455901,45.7118451 88.939798,46.2933247 90.5526181,46.759696 C92.1654382,47.2260673 93.582564,47.4592495 94.804038,47.4592495 C95.8120505,47.4592495 96.5502604,47.3382309 97.0186898,47.0961901 C97.4871191,46.8541493 97.7213303,46.4497701 97.7213303,45.8830403 C97.7213303,45.4934136 97.5523425,45.1628263 97.2143618,44.8912683 C96.8763811,44.6197103 96.3130885,44.3127363 95.5244669,43.9703371 C94.7358453,43.6279379 93.6715186,43.2147036 92.3314549,42.730622 C90.8253656,42.1756991 89.6098392,41.5528961 88.6848395,40.8621943 C87.7598398,40.1714924 87.0868532,39.3981541 86.6658598,38.542156 C86.2448663,37.686158 86.0343727,36.6206041 86.0343727,35.3454622 C86.0343727,33.3973287 86.6628888,31.8742654 87.9199397,30.7762266 C89.1769906,29.6781877 91.0625387,28.9993029 93.5766406,28.7395518 L93.5766406,26.3132523 L97.2588327,26.3132523 L97.2588327,28.7041314 C99.618768,28.834007 101.996456,29.4125349 104.391968,30.4397325 L102.275152,35.4871439 C99.7966275,34.3772982 97.5612449,33.8223836 95.5689378,33.8223836 C94.6202201,33.8223836 93.953163,33.9374989 93.5677464,34.1677328 C93.1823299,34.3979668 92.9896245,34.7374092 92.9896245,35.1860702 C92.9896245,35.5756969 93.1289653,35.8974293 93.4076511,36.151277 C93.6863369,36.4051247 94.1695828,36.6884853 94.8574031,37.0013673 C95.5452234,37.3142493 96.4998563,37.6773051 97.7213303,38.0905456 C100.199855,38.9642539 101.978674,39.9589677 103.057841,41.0747168 C104.137007,42.190466 104.676582,43.6279308 104.676582,45.3871543 C104.676582,47.3707083 104.045101,48.9823218 102.782121,50.2220431 C101.51914,51.4617644 99.6780628,52.2291994 97.2588327,52.5243711 L97.2588327,55.9424427 L93.5766406,55.9424427 L93.5766406,52.6306324 Z" id="path-14"></path>
    </defs>
    <g id="Page-1" stroke="none" stroke-width="1" fill="none" fill-rule="evenodd">
        <g id="home" transform="translate(-265.000000, -919.000000)">
            <g id="content" transform="translate(220.000000, 370.000000)">
                <g id="ww" transform="translate(0.000000, 467.000000)">
                    <g id="content" transform="translate(45.000000, 45.000000)">
                        <g id="img-copy" transform="translate(0.000000, 37.000000)">
                            <mask id="mask-2" fill="white">
                                <use xlink:href="#path-1"></use>
                            </mask>
                            <use id="Mask" fill-opacity="0" fill="#FFFFFF" xlink:href="#path-1"></use>
                            <g id="wegopower" mask="url(#mask-2)">
                                <g id="tiles" opacity="0.51" fill="#57FF7B">
                                    <g id="tile-row">
                                        <rect id="Rectangle-1268" fill-opacity="0" x="0" y="0" width="51.69309" height="48.2210407"></rect>
                                        <rect id="Rectangle-1268" fill-opacity="0.100000001" x="51.69309" y="0" width="51.69309" height="48.2210407"></rect>
                                        <rect id="Rectangle-1268-Copy" fill-opacity="0.200000003" x="103.38618" y="0" width="51.69309" height="48.2210407"></rect>
                                        <rect id="Rectangle-1268-Copy-2" fill-opacity="0.300000012" x="155.07927" y="0" width="51.69309" height="48.2210407"></rect>
                                        <rect id="Rectangle-1268-Copy-3" fill-opacity="0.400000006" x="206.77236" y="0" width="51.69309" height="48.2210407"></rect>
                                        <rect id="Rectangle-1268-Copy-4" fill-opacity="0.5" x="258.46545" y="0" width="51.69309" height="48.2210407"></rect>
                                        <rect id="Rectangle-1268-Copy-5" fill-opacity="0.6" x="310.15854" y="0" width="51.69309" height="48.2210407"></rect>
                                    </g>
                                    <g id="tile-row-copy" transform="translate(0.000000, 48.400000)">
                                        <rect id="Rectangle-1268" fill-opacity="0.100000001" x="0" y="0" width="51.69309" height="48.2210407"></rect>
                                        <rect id="Rectangle-1268" fill-opacity="0.15" x="51.6966863" y="0" width="51.69309" height="48.2210407"></rect>
                                        <rect id="Rectangle-1268-Copy" fill-opacity="0.25" x="103.380785" y="0" width="51.69309" height="48.2210407"></rect>
                                        <rect id="Rectangle-1268-Copy-2" fill-opacity="0.35" x="155.077472" y="0" width="51.69309" height="48.2210407"></rect>
                                        <rect id="Rectangle-1268-Copy-3" fill-opacity="0.45" x="206.774158" y="0" width="51.69309" height="48.2210407"></rect>
                                        <rect id="Rectangle-1268-Copy-4" fill-opacity="0.55" x="258.470844" y="0" width="51.69309" height="48.2210407"></rect>
                                        <rect id="Rectangle-1268-Copy-5" fill-opacity="0.65" x="310.15854" y="0" width="51.69309" height="48.2210407"></rect>
                                    </g>
                                    <g id="tile-row-copy-2" transform="translate(0.000000, 96.800000)">
                                        <rect id="Rectangle-1268" fill-opacity="0.2" x="0" y="0" width="51.69309" height="48.2210407"></rect>
                                        <rect id="Rectangle-1268" fill-opacity="0.25" x="51.6966863" y="0" width="51.69309" height="48.2210407"></rect>
                                        <rect id="Rectangle-1268-Copy" fill-opacity="0.35" x="103.380785" y="0" width="51.69309" height="48.2210407"></rect>
                                        <rect id="Rectangle-1268-Copy-2" fill-opacity="0.45" x="155.077472" y="0" width="51.69309" height="48.2210407"></rect>
                                        <rect id="Rectangle-1268-Copy-3" fill-opacity="0.55" x="206.774158" y="0" width="51.69309" height="48.2210407"></rect>
                                        <rect id="Rectangle-1268-Copy-4" fill-opacity="0.65" x="258.46545" y="0" width="51.69309" height="48.2210407"></rect>
                                        <rect id="Rectangle-1268-Copy-5" fill-opacity="0.75" x="310.15854" y="0" width="51.69309" height="48.2210407"></rect>
                                    </g>
                                    <g id="tile-row-copy-3" transform="translate(0.000000, 145.200000)">
                                        <rect id="Rectangle-1268" fill-opacity="0.3" x="0" y="0" width="51.69309" height="48.2210407"></rect>
                                        <rect id="Rectangle-1268" fill-opacity="0.35" x="51.69309" y="0" width="51.69309" height="48.2210407"></rect>
                                        <rect id="Rectangle-1268-Copy" fill-opacity="0.45" x="103.38618" y="0" width="51.69309" height="48.2210407"></rect>
                                        <rect id="Rectangle-1268-Copy-2" fill-opacity="0.55" x="155.07927" y="0" width="51.69309" height="48.2210407"></rect>
                                        <rect id="Rectangle-1268-Copy-3" fill-opacity="0.65" x="206.77236" y="0" width="51.69309" height="48.2210407"></rect>
                                        <rect id="Rectangle-1268-Copy-4" fill-opacity="0.75" x="258.470844" y="0" width="51.69309" height="48.2210407"></rect>
                                        <rect id="Rectangle-1268-Copy-5" fill-opacity="0.85" x="310.15854" y="0" width="51.69309" height="48.2210407"></rect>
                                    </g>
                                    <g id="tile-row-copy-4" transform="translate(0.000000, 193.600000)">
                                        <rect id="Rectangle-1268" fill-opacity="0.4" x="0" y="0" width="51.69309" height="48.2210407"></rect>
                                        <rect id="Rectangle-1268" fill-opacity="0.45" x="51.69309" y="0" width="51.69309" height="48.2210407"></rect>
                                        <rect id="Rectangle-1268-Copy" fill-opacity="0.55" x="103.38618" y="0" width="51.69309" height="48.2210407"></rect>
                                        <rect id="Rectangle-1268-Copy-2" fill-opacity="0.65" x="155.07927" y="0" width="51.69309" height="48.2210407"></rect>
                                        <rect id="Rectangle-1268-Copy-3" fill-opacity="0.75" x="206.77236" y="0" width="51.69309" height="48.2210407"></rect>
                                        <rect id="Rectangle-1268-Copy-4" fill-opacity="0.86" x="258.46545" y="0" width="51.69309" height="48.2210407"></rect>
                                        <rect id="Rectangle-1268-Copy-5" fill-opacity="0.95" x="310.15854" y="0" width="51.69309" height="48.2210407"></rect>
                                    </g>
                                </g>
                                <g id="plug-+-shadow" transform="translate(140.099998, 71.299999)">
                                    <polygon id="shadow" fill-opacity="0.03" fill="url(#linearGradient-3)" points="27.1687493 1.65180719 58.110936 44.5048181 59.6203109 1.65180719 144.899996 127.203611 87.5437477 187.348188 46.7906238 128.707226 46.7906238 110.663852 26.4140618 39.2421676"></polygon>
                                    <g id="plug" transform="translate(41.000000, 85.000000) rotate(-90.000000) translate(-41.000000, -85.000000) translate(-44.000000, 44.000000)">
                                        <g id="prongs" transform="translate(128.296872, 19.546987)">
                                            <g id="Rectangle-1266">
                                                <use fill="#FFFFFF" xlink:href="#path-5"></use>
                                                <use fill-opacity="0.389999986" fill="url(#linearGradient-4)" xlink:href="#path-5"></use>
                                            </g>
                                            <g id="Rectangle-1266">
                                                <use fill="#FFFFFF" xlink:href="#path-6"></use>
                                                <use fill-opacity="0.389999986" fill="url(#linearGradient-4)" xlink:href="#path-6"></use>
                                            </g>
                                        </g>
                                        <g id="Rectangle-1265">
                                            <use fill="#F5F5F5" xlink:href="#path-8"></use>
                                            <use fill-opacity="0.200000018" fill="url(#linearGradient-7)" xlink:href="#path-8"></use>
                                        </g>
                                        <g id="plug-body">
                                            <use fill="#FFFFFF" xlink:href="#path-10"></use>
                                            <use fill-opacity="0.19" fill="url(#linearGradient-9)" xlink:href="#path-10"></use>
                                        </g>
                                        <g id="Rectangle-1939">
                                            <use fill="#FFF373" xlink:href="#path-12"></use>
                                            <use fill-opacity="0.119999997" fill="url(#linearGradient-11)" xlink:href="#path-12"></use>
                                        </g>
                                        <g id="$" transform="translate(95.995859, 41.127847) rotate(-270.000000) translate(-95.995859, -41.127847) ">
                                            <use fill-opacity="0.55" fill="#75B1FA" xlink:href="#path-14"></use>
                                            <use fill-opacity="0.189999998" fill="url(#linearGradient-13)" xlink:href="#path-14"></use>
                                        </g>
                                    </g>
                                </g>
                            </g>
                        </g>
                    </g>
                </g>
            </g>
        </g>
    </g>
</svg>
