<?xml version="1.0" encoding="UTF-8"?>
<svg width="129px" height="135px" viewBox="0 0 129 135" version="1.1" xmlns="http://www.w3.org/2000/svg" xmlns:xlink="http://www.w3.org/1999/xlink">
    <!-- Generator: Sketch 60.1 (88133) - https://sketch.com -->
    <title>wt-deco</title>
    <desc>Created with Sketch.</desc>
    <g id="wt-deco" stroke="none" stroke-width="1" fill="none" fill-rule="evenodd">
        <circle id="background-disc" fill="#FFF6F5" cx="71.5" cy="77.5" r="57.5"></circle>
        <path d="M4,64 C6.209139,64 8,65.790861 8,68 C8,70.209139 6.209139,72 4,72 C1.790861,72 0,70.209139 0,68 C0,65.790861 1.790861,64 4,64 Z M20,64 C22.209139,64 24,65.790861 24,68 C24,70.209139 22.209139,72 20,72 C17.790861,72 16,70.209139 16,68 C16,65.790861 17.790861,64 20,64 Z M36,64 C38.209139,64 40,65.790861 40,68 C40,70.209139 38.209139,72 36,72 C33.790861,72 32,70.209139 32,68 C32,65.790861 33.790861,64 36,64 Z M52,64 C54.209139,64 56,65.790861 56,68 C56,70.209139 54.209139,72 52,72 C49.790861,72 48,70.209139 48,68 C48,65.790861 49.790861,64 52,64 Z M68,64 C70.209139,64 72,65.790861 72,68 C72,70.209139 70.209139,72 68,72 C65.790861,72 64,70.209139 64,68 C64,65.790861 65.790861,64 68,64 Z M20,48 C22.209139,48 24,49.790861 24,52 C24,54.209139 22.209139,56 20,56 C17.790861,56 16,54.209139 16,52 C16,49.790861 17.790861,48 20,48 Z M36,48 C38.209139,48 40,49.790861 40,52 C40,54.209139 38.209139,56 36,56 C33.790861,56 32,54.209139 32,52 C32,49.790861 33.790861,48 36,48 Z M52,48 C54.209139,48 56,49.790861 56,52 C56,54.209139 54.209139,56 52,56 C49.790861,56 48,54.209139 48,52 C48,49.790861 49.790861,48 52,48 Z M68,48 C70.209139,48 72,49.790861 72,52 C72,54.209139 70.209139,56 68,56 C65.790861,56 64,54.209139 64,52 C64,49.790861 65.790861,48 68,48 Z M4,32 C6.209139,32 8,33.790861 8,36 C8,38.209139 6.209139,40 4,40 C1.790861,40 0,38.209139 0,36 C0,33.790861 1.790861,32 4,32 Z M20,32 C22.209139,32 24,33.790861 24,36 C24,38.209139 22.209139,40 20,40 C17.790861,40 16,38.209139 16,36 C16,33.790861 17.790861,32 20,32 Z M36,32 C38.209139,32 40,33.790861 40,36 C40,38.209139 38.209139,40 36,40 C33.790861,40 32,38.209139 32,36 C32,33.790861 33.790861,32 36,32 Z M52,32 C54.209139,32 56,33.790861 56,36 C56,38.209139 54.209139,40 52,40 C49.790861,40 48,38.209139 48,36 C48,33.790861 49.790861,32 52,32 Z M68,32 C70.209139,32 72,33.790861 72,36 C72,38.209139 70.209139,40 68,40 C65.790861,40 64,38.209139 64,36 C64,33.790861 65.790861,32 68,32 Z M4,16 C6.209139,16 8,17.790861 8,20 C8,22.209139 6.209139,24 4,24 C1.790861,24 0,22.209139 0,20 C0,17.790861 1.790861,16 4,16 Z M20,16 C22.209139,16 24,17.790861 24,20 C24,22.209139 22.209139,24 20,24 C17.790861,24 16,22.209139 16,20 C16,17.790861 17.790861,16 20,16 Z M36,16 C38.209139,16 40,17.790861 40,20 C40,22.209139 38.209139,24 36,24 C33.790861,24 32,22.209139 32,20 C32,17.790861 33.790861,16 36,16 Z M52,16 C54.209139,16 56,17.790861 56,20 C56,22.209139 54.209139,24 52,24 C49.790861,24 48,22.209139 48,20 C48,17.790861 49.790861,16 52,16 Z M68,16 C70.209139,16 72,17.790861 72,20 C72,22.209139 70.209139,24 68,24 C65.790861,24 64,22.209139 64,20 C64,17.790861 65.790861,16 68,16 Z M4,0 C6.209139,0 8,1.790861 8,4 C8,6.209139 6.209139,8 4,8 C1.790861,8 0,6.209139 0,4 C0,1.790861 1.790861,0 4,0 Z M20,0 C22.209139,0 24,1.790861 24,4 C24,6.209139 22.209139,8 20,8 C17.790861,8 16,6.209139 16,4 C16,1.790861 17.790861,0 20,0 Z M36,0 C38.209139,0 40,1.790861 40,4 C40,6.209139 38.209139,8 36,8 C33.790861,8 32,6.209139 32,4 C32,1.790861 33.790861,0 36,0 Z M52,0 C54.209139,0 56,1.790861 56,4 C56,6.209139 54.209139,8 52,8 C49.790861,8 48,6.209139 48,4 C48,1.790861 49.790861,0 52,0 Z M68,0 C70.209139,0 72,1.790861 72,4 C72,6.209139 70.209139,8 68,8 C65.790861,8 64,6.209139 64,4 C64,1.790861 65.790861,0 68,0 Z" id="combined-dots" fill="#D7E5F4"></path>
        <circle id="standout-dot" fill="#B4EDE4" cx="4" cy="52" r="4"></circle>
    </g>
</svg>