<?xml version="1.0" encoding="UTF-8"?>
<svg width="90px" height="100%" viewBox="0 0 119 112" version="1.1" xmlns="http://www.w3.org/2000/svg" xmlns:xlink="http://www.w3.org/1999/xlink">
    <title>wwDeco</title>
    <defs>
        <path d="M4.80000019,76.8000031 C7.4509671,76.8000031 9.60000038,78.9490363 9.60000038,81.6000032 C9.60000038,84.2509701 7.4509671,86.4000034 4.80000019,86.4000034 C2.14903329,86.4000034 0,84.2509701 0,81.6000032 C0,78.9490363 2.14903329,76.8000031 4.80000019,76.8000031 Z M24.000001,76.8000031 C26.6509679,76.8000031 28.8000011,78.9490363 28.8000011,81.6000032 C28.8000011,84.2509701 26.6509679,86.4000034 24.000001,86.4000034 C21.349034,86.4000034 19.2000008,84.2509701 19.2000008,81.6000032 C19.2000008,78.9490363 21.349034,76.8000031 24.000001,76.8000031 Z M43.2000017,76.8000031 C45.8509686,76.8000031 48.0000019,78.9490363 48.0000019,81.6000032 C48.0000019,84.2509701 45.8509686,86.4000034 43.2000017,86.4000034 C40.5490348,86.4000034 38.4000015,84.2509701 38.4000015,81.6000032 C38.4000015,78.9490363 40.5490348,76.8000031 43.2000017,76.8000031 Z M62.4000025,76.8000031 C65.0509694,76.8000031 67.2000027,78.9490363 67.2000027,81.6000032 C67.2000027,84.2509701 65.0509694,86.4000034 62.4000025,86.4000034 C59.7490356,86.4000034 57.6000023,84.2509701 57.6000023,81.6000032 C57.6000023,78.9490363 59.7490356,76.8000031 62.4000025,76.8000031 Z M81.6000032,76.8000031 C84.2509701,76.8000031 86.4000034,78.9490363 86.4000034,81.6000032 C86.4000034,84.2509701 84.2509701,86.4000034 81.6000032,86.4000034 C78.9490363,86.4000034 76.8000031,84.2509701 76.8000031,81.6000032 C76.8000031,78.9490363 78.9490363,76.8000031 81.6000032,76.8000031 Z M4.80000019,57.6000023 C7.4509671,57.6000023 9.60000038,59.7490356 9.60000038,62.4000025 C9.60000038,65.0509694 7.4509671,67.2000027 4.80000019,67.2000027 C2.14903329,67.2000027 0,65.0509694 0,62.4000025 C0,59.7490356 2.14903329,57.6000023 4.80000019,57.6000023 Z M24.000001,57.6000023 C26.6509679,57.6000023 28.8000011,59.7490356 28.8000011,62.4000025 C28.8000011,65.0509694 26.6509679,67.2000027 24.000001,67.2000027 C21.349034,67.2000027 19.2000008,65.0509694 19.2000008,62.4000025 C19.2000008,59.7490356 21.349034,57.6000023 24.000001,57.6000023 Z M43.2000017,57.6000023 C45.8509686,57.6000023 48.0000019,59.7490356 48.0000019,62.4000025 C48.0000019,65.0509694 45.8509686,67.2000027 43.2000017,67.2000027 C40.5490348,67.2000027 38.4000015,65.0509694 38.4000015,62.4000025 C38.4000015,59.7490356 40.5490348,57.6000023 43.2000017,57.6000023 Z M62.4000025,57.6000023 C65.0509694,57.6000023 67.2000027,59.7490356 67.2000027,62.4000025 C67.2000027,65.0509694 65.0509694,67.2000027 62.4000025,67.2000027 C59.7490356,67.2000027 57.6000023,65.0509694 57.6000023,62.4000025 C57.6000023,59.7490356 59.7490356,57.6000023 62.4000025,57.6000023 Z M81.6000032,57.6000023 C84.2509701,57.6000023 86.4000034,59.7490356 86.4000034,62.4000025 C86.4000034,65.0509694 84.2509701,67.2000027 81.6000032,67.2000027 C78.9490363,67.2000027 76.8000031,65.0509694 76.8000031,62.4000025 C76.8000031,59.7490356 78.9490363,57.6000023 81.6000032,57.6000023 Z M4.80000019,38.4000015 C7.4509671,38.4000015 9.60000038,40.5490348 9.60000038,43.2000017 C9.60000038,45.8509686 7.4509671,48.0000019 4.80000019,48.0000019 C2.14903329,48.0000019 0,45.8509686 0,43.2000017 C0,40.5490348 2.14903329,38.4000015 4.80000019,38.4000015 Z M24.000001,38.4000015 C26.6509679,38.4000015 28.8000011,40.5490348 28.8000011,43.2000017 C28.8000011,45.8509686 26.6509679,48.0000019 24.000001,48.0000019 C21.349034,48.0000019 19.2000008,45.8509686 19.2000008,43.2000017 C19.2000008,40.5490348 21.349034,38.4000015 24.000001,38.4000015 Z M43.2000017,38.4000015 C45.8509686,38.4000015 48.0000019,40.5490348 48.0000019,43.2000017 C48.0000019,45.8509686 45.8509686,48.0000019 43.2000017,48.0000019 C40.5490348,48.0000019 38.4000015,45.8509686 38.4000015,43.2000017 C38.4000015,40.5490348 40.5490348,38.4000015 43.2000017,38.4000015 Z M62.4000025,38.4000015 C65.0509694,38.4000015 67.2000027,40.5490348 67.2000027,43.2000017 C67.2000027,45.8509686 65.0509694,48.0000019 62.4000025,48.0000019 C59.7490356,48.0000019 57.6000023,45.8509686 57.6000023,43.2000017 C57.6000023,40.5490348 59.7490356,38.4000015 62.4000025,38.4000015 Z M81.6000032,38.4000015 C84.2509701,38.4000015 86.4000034,40.5490348 86.4000034,43.2000017 C86.4000034,45.8509686 84.2509701,48.0000019 81.6000032,48.0000019 C78.9490363,48.0000019 76.8000031,45.8509686 76.8000031,43.2000017 C76.8000031,40.5490348 78.9490363,38.4000015 81.6000032,38.4000015 Z M4.80000019,19.2000008 C7.4509671,19.2000008 9.60000038,21.349034 9.60000038,24.000001 C9.60000038,26.6509679 7.4509671,28.8000011 4.80000019,28.8000011 C2.14903329,28.8000011 0,26.6509679 0,24.000001 C0,21.349034 2.14903329,19.2000008 4.80000019,19.2000008 Z M24.000001,19.2000008 C26.6509679,19.2000008 28.8000011,21.349034 28.8000011,24.000001 C28.8000011,26.6509679 26.6509679,28.8000011 24.000001,28.8000011 C21.349034,28.8000011 19.2000008,26.6509679 19.2000008,24.000001 C19.2000008,21.349034 21.349034,19.2000008 24.000001,19.2000008 Z M43.2000017,19.2000008 C45.8509686,19.2000008 48.0000019,21.349034 48.0000019,24.000001 C48.0000019,26.6509679 45.8509686,28.8000011 43.2000017,28.8000011 C40.5490348,28.8000011 38.4000015,26.6509679 38.4000015,24.000001 C38.4000015,21.349034 40.5490348,19.2000008 43.2000017,19.2000008 Z M62.4000025,19.2000008 C65.0509694,19.2000008 67.2000027,21.349034 67.2000027,24.000001 C67.2000027,26.6509679 65.0509694,28.8000011 62.4000025,28.8000011 C59.7490356,28.8000011 57.6000023,26.6509679 57.6000023,24.000001 C57.6000023,21.349034 59.7490356,19.2000008 62.4000025,19.2000008 Z M81.6000032,19.2000008 C84.2509701,19.2000008 86.4000034,21.349034 86.4000034,24.000001 C86.4000034,26.6509679 84.2509701,28.8000011 81.6000032,28.8000011 C78.9490363,28.8000011 76.8000031,26.6509679 76.8000031,24.000001 C76.8000031,21.349034 78.9490363,19.2000008 81.6000032,19.2000008 Z M4.80000019,0 C7.4509671,0 9.60000038,2.14903329 9.60000038,4.80000019 C9.60000038,7.4509671 7.4509671,9.60000038 4.80000019,9.60000038 C2.14903329,9.60000038 0,7.4509671 0,4.80000019 C0,2.14903329 2.14903329,0 4.80000019,0 Z M24.000001,0 C26.6509679,0 28.8000011,2.14903329 28.8000011,4.80000019 C28.8000011,7.4509671 26.6509679,9.60000038 24.000001,9.60000038 C21.349034,9.60000038 19.2000008,7.4509671 19.2000008,4.80000019 C19.2000008,2.14903329 21.349034,0 24.000001,0 Z M43.2000017,0 C45.8509686,0 48.0000019,2.14903329 48.0000019,4.80000019 C48.0000019,7.4509671 45.8509686,9.60000038 43.2000017,9.60000038 C40.5490348,9.60000038 38.4000015,7.4509671 38.4000015,4.80000019 C38.4000015,2.14903329 40.5490348,0 43.2000017,0 Z M62.4000025,0 C65.0509694,0 67.2000027,2.14903329 67.2000027,4.80000019 C67.2000027,7.4509671 65.0509694,9.60000038 62.4000025,9.60000038 C59.7490356,9.60000038 57.6000023,7.4509671 57.6000023,4.80000019 C57.6000023,2.14903329 59.7490356,0 62.4000025,0 Z M81.6000032,0 C84.2509701,0 86.4000034,2.14903329 86.4000034,4.80000019 C86.4000034,7.4509671 84.2509701,9.60000038 81.6000032,9.60000038 C78.9490363,9.60000038 76.8000031,7.4509671 76.8000031,4.80000019 C76.8000031,2.14903329 78.9490363,0 81.6000032,0 Z" id="path-1"></path>
        <linearGradient x1="6.38350475%" y1="1.04709141%" x2="86.2391218%" y2="98.9529086%" id="linearGradient-3">
            <stop stop-color="#D9FFE6" offset="0%"></stop>
            <stop stop-color="#E9E8FF" offset="100%"></stop>
        </linearGradient>
    </defs>
    <g id="wwDeco" stroke="none" stroke-width="1" fill="none" fill-rule="evenodd">
        <g id="ww-dot-grid">
            <rect id="frame" stroke="#F2FFFE" stroke-width="13.2000005" transform="translate(54.806624, 54.319929) rotate(10.000000) translate(-54.806624, -54.319929) " x="14.0066228" y="14.119927" width="81.6000032" height="80.4000032"></rect>
            <g id="dot-grid" transform="translate(65.962585, 59.216732) rotate(17.000000) translate(-65.962585, -59.216732) translate(22.462585, 15.716732)">
                <mask id="mask-2" fill="white">
                    <use xlink:href="#path-1"></use>
                </mask>
                <use id="Mask" fill-opacity="0" fill="#D7E5F4" xlink:href="#path-1"></use>
                <rect id="gradient" stroke="#DCDDDE" stroke-width="1.20000005" fill="url(#linearGradient-3)" mask="url(#mask-2)" x="-4.38557349" y="-2.99892151" width="93.8" height="92.8"></rect>
            </g>
        </g>
    </g>
</svg>
