<?xml version="1.0" encoding="UTF-8"?>
<svg width="20px" height="20px" viewBox="0 0 20 20" version="1.1" xmlns="http://www.w3.org/2000/svg" xmlns:xlink="http://www.w3.org/1999/xlink">
    <!-- Generator: Sketch 58 (84663) - https://sketch.com -->
    <title>dribbble</title>
    <desc>Created with Sketch.</desc>
    <g id="dribbble" stroke="none" stroke-width="1" fill="none" fill-rule="evenodd">
        <path d="M17.989,9.572 C17.9070184,7.9979147 17.3595555,6.48360388 16.416,5.221 C16.1285101,5.53062981 15.8211954,5.82124261 15.496,6.091 C14.4969261,6.92084556 13.3804868,7.59819028 12.183,8.101 C12.35,8.451 12.503,8.79 12.638,9.11 L12.638,9.113 C12.6760927,9.20241243 12.712764,9.29242376 12.748,9.383 C14.262,9.213 15.858,9.275 17.405,9.484 C17.611,9.512 17.805,9.542 17.989,9.572 L17.989,9.572 Z M8.604,2.122 C9.57853639,3.4951725 10.4772128,4.92063621 11.296,6.392 C12.519,5.91 13.53,5.302 14.344,4.625 C14.6265517,4.39213213 14.8925295,4.13985419 15.14,3.87 C13.7009796,2.65971676 11.880308,1.99733234 10,1.99999197 C9.53203421,1.99968024 9.06493177,2.04016691 8.604,2.121 L8.604,2.122 Z M2.253,7.997 C2.93422657,7.97980825 3.61464292,7.93878315 4.293,7.874 C5.93264004,7.72734299 7.5582767,7.45250273 9.155,7.052 C8.32051126,5.60221116 7.41955265,4.1917104 6.455,2.825 C4.37032359,3.85774111 2.83699463,5.74502749 2.253,7.997 L2.253,7.997 Z M3.783,15.035 C4.171,14.468 4.681,13.83 5.358,13.136 C6.812,11.646 8.528,10.486 10.514,9.846 L10.576,9.828 C10.411,9.464 10.256,9.139 10.1,8.833 C8.264,9.368 6.33,9.702 4.403,9.875 C3.463,9.96 2.62,9.997 1.99999628,10.003 C1.99823009,11.8355927 2.62829395,13.6127684 3.784,15.035 L3.783,15.035 Z M13.005,17.415 C12.6193675,15.4702507 12.0735058,13.5607383 11.373,11.706 C9.371,12.433 7.776,13.496 6.543,14.764 C6.04540348,15.2663825 5.60381652,15.8213001 5.226,16.419 C6.60480741,17.4477901 8.27967648,18.0024546 10,18.0000082 C11.0299101,18.0014767 12.0503611,17.8034991 13.005,17.417 L13.005,17.415 Z M14.878,16.34 C16.4392667,15.1397608 17.5028422,13.4057091 17.865,11.47 C17.525,11.385 17.094,11.3 16.62,11.234 C15.5661373,11.0822412 14.4967851,11.0711442 13.44,11.201 C14.0350587,12.87983 14.5154959,14.597109 14.878,16.341 L14.878,16.34 Z M10,20 C4.477,20 0,15.523 0,10 C0,4.477 4.477,0 10,0 C15.523,0 20,4.477 20,10 C20,15.523 15.523,20 10,20 Z" id="Shape" fill="#000000" fill-rule="nonzero"></path>
    </g>
</svg>