<?xml version="1.0" encoding="UTF-8"?>
<svg width="20px" height="20px" viewBox="0 0 20 20" version="1.1" xmlns="http://www.w3.org/2000/svg" xmlns:xlink="http://www.w3.org/1999/xlink">
    <!-- Generator: Sketch 58 (84663) - https://sketch.com -->
    <title>linkedin</title>
    <desc>Created with Sketch.</desc>
    <g id="linkedin" stroke="none" stroke-width="1" fill="none" fill-rule="evenodd">
        <path d="M16.335,16.339 L13.67,16.339 L13.67,12.162 C13.67,11.166 13.65,9.884 12.28,9.884 C10.891,9.884 10.679,10.968 10.679,12.089 L10.679,16.339 L8.013,16.339 L8.013,7.75 L10.573,7.75 L10.573,8.92 L10.608,8.92 C10.966,8.246 11.836,7.533 13.136,7.533 C15.836,7.533 16.336,9.311 16.336,11.624 L16.336,16.339 L16.335,16.339 Z M5.003,6.5750013 C4.59210855,6.57553233 4.19790762,6.41247352 3.90745708,6.12183534 C3.61700653,5.83119717 3.45420232,5.43689102 3.45499708,5.026 C3.45555246,4.17106347 4.14906325,3.4784483 5.00399978,3.47900032 C5.85893631,3.47955299 6.55155158,4.17306368 6.55099968,5.02800021 C6.55044713,5.88293675 5.85693653,6.57555211 5.002,6.5750013 L5.003,6.5750013 Z M6.339,16.339 L3.666,16.339 L3.666,7.75 L6.34,7.75 L6.34,16.339 L6.339,16.339 Z M17.67,1 L2.329,1 C1.593,1 1,1.58 1,2.297 L1,17.703 C1,18.42 1.594,19 2.328,19 L17.666,19 C18.4,19 19,18.42 19,17.703 L19,2.297 C19,1.58 18.4,1 17.666,1 L17.669,1 L17.67,1 Z" id="Shape" fill="#000000" fill-rule="nonzero"></path>
    </g>
</svg>