<?xml version="1.0" encoding="UTF-8"?>
<svg viewBox="0 0 50 50" version="1.1" xmlns="http://www.w3.org/2000/svg" xmlns:xlink="http://www.w3.org/1999/xlink">
    <!-- Generator: Sketch 58 (84663) - https://sketch.com -->
    <title>logo</title>
    <desc>Created with Sketch.</desc>
    <g id="logo" stroke="none" stroke-width="1" fill="none" fill-rule="evenodd">
        <g id="Group" transform="translate(0.000000, 11.000000)" fill-rule="nonzero">
            <path d="M10.4332796,27.3198381 C18.6534393,27.3198381 24.3838391,22.1031983 24.3838391,14.1201586 C24.3838391,6.21615889 18.6534393,0.959999084 10.3937596,0.959999084 L2.21156427e-13,0.959999084 L2.21156427e-13,27.3198381 L10.4332796,27.3198381 Z M10.3937596,22.3798383 L5.61183979,22.3798383 L5.61183979,5.8999989 L10.4332796,5.8999989 C15.8079994,5.8999989 18.6534393,9.49631877 18.6534393,14.1201586 C18.6534393,18.6254384 15.6103994,22.3798383 10.3937596,22.3798383 Z" id="D" fill-opacity="0.9" fill="#9C6FB3"></path>
            <polygon id="W" fill-opacity="0.5" fill="#00C483" points="42.2107211 26.359839 36.2432013 26.359839 31.6193614 8.2596797 27.0350416 26.359839 21.0675218 26.359839 13.5192021 0 19.8028819 0 24.4267217 19.0486393 29.4457615 0 33.8324814 0 38.8120012 19.0486393 43.435841 0 49.7195208 0"></polygon>
        </g>
    </g>
</svg>
