<svg width="309" height="74" xmlns="http://www.w3.org/2000/svg"><g fill="none" fill-rule="evenodd"><path d="M77.945 47.766a5.71 5.71 0 0 1 1.266-2.438 9.457 9.457 0 0 1 2.25-1.875c.875-.531 1.836-.98 2.883-1.348a27.36 27.36 0 0 1 3.164-.902 27.162 27.162 0 0 1 3.082-.504 26.409 26.409 0 0 1 2.66-.152c0-1.25-.11-2.266-.328-3.047-.219-.781-.543-1.395-.973-1.84a3.325 3.325 0 0 0-1.57-.914c-.617-.164-1.324-.246-2.121-.246-1.016 0-1.957.082-2.824.246-.868.164-1.641.356-2.32.574-.68.22-1.243.442-1.688.668-.446.227-.754.403-.926.528l-1.594-3.61c.25-.203.696-.468 1.336-.797.64-.328 1.465-.648 2.473-.96 1.008-.313 2.187-.579 3.539-.797 1.351-.22 2.855-.329 4.512-.329 1.578 0 3.027.145 4.347.434 1.32.29 2.457.797 3.41 1.523.954.727 1.696 1.711 2.227 2.954.531 1.242.797 2.816.797 4.722v14.157h3.07v2.507a5.48 5.48 0 0 1-1.37.68c-.509.172-1.036.305-1.583.398-.547.094-1.09.16-1.629.2-.539.039-1.035.058-1.488.058a9.05 9.05 0 0 1-1.149-.093 5.066 5.066 0 0 1-1.37-.387 3.483 3.483 0 0 1-1.16-.82c-.329-.352-.509-.81-.54-1.372-.812.766-1.773 1.403-2.883 1.91-1.11.508-2.414.762-3.914.762-2.047 0-3.754-.277-5.12-.832-1.368-.554-2.434-1.289-3.2-2.203a6.459 6.459 0 0 1-1.441-3.164c-.196-1.195-.137-2.426.175-3.691zm8.11 1.382c0 1.516.43 2.61 1.289 3.282.86.672 2.117.89 3.773.656a4.018 4.018 0 0 0 1.149-.34 5.86 5.86 0 0 0 .96-.574c0-1.344.004-2.684.012-4.02.008-1.336.012-2.675.012-4.02-.484 0-1 .028-1.547.083-.547.055-1.086.152-1.617.293a7.49 7.49 0 0 0-1.523.586 5.31 5.31 0 0 0-1.29.926 4.034 4.034 0 0 0-.89 1.324c-.219.515-.328 1.117-.328 1.804zm20.32 4.664l2.766-.585V24.563l-3.164-1.336v-3.282l10.101-1.148 1.36.422v33.89l4.101.703V57h-15.164v-3.188zm17.297-9.492c0-2.093.402-4.015 1.207-5.765a13.976 13.976 0 0 1 3.281-4.524c1.383-1.265 3-2.25 4.852-2.953 1.851-.703 3.824-1.055 5.918-1.055.36 0 .77.008 1.23.024.461.016.988.07 1.582.164v-5.648l-5.18-1.336v-3.282l11.954-1.148 1.523.633v34.383h3.328v2.507c-.531.297-1.387.594-2.566.89-1.18.298-2.7.446-4.559.446-1.015 0-1.84-.144-2.472-.433-.633-.29-1.106-.707-1.418-1.254-.313.219-.692.43-1.137.633a9.552 9.552 0 0 1-1.582.539c-.61.156-1.313.28-2.11.375a23.25 23.25 0 0 1-2.695.14c-.812 0-1.652-.11-2.52-.328a10.497 10.497 0 0 1-2.542-1.02 11.48 11.48 0 0 1-2.356-1.757 10.898 10.898 0 0 1-1.945-2.543c-.555-.985-.992-2.113-1.313-3.387-.32-1.273-.48-2.707-.48-4.3zm13.219 9.235a4.435 4.435 0 0 0 1.64.304c.703 0 1.324-.043 1.864-.129.539-.085.988-.19 1.347-.316V34.031a4.53 4.53 0 0 0-1.781-.68 11.984 11.984 0 0 0-1.758-.14c-.25 0-.562.043-.937.129a4.785 4.785 0 0 0-1.207.48c-.43.235-.864.567-1.301.996-.438.43-.832.993-1.184 1.688-.351.695-.644 1.535-.879 2.52-.234.984-.36 2.156-.375 3.515-.03 1.578.063 2.992.282 4.242.218 1.25.535 2.332.949 3.246.414.914.91 1.668 1.488 2.262.578.594 1.195 1.016 1.852 1.266zm19.195-9c0-2 .328-3.883.984-5.649.657-1.765 1.602-3.304 2.836-4.617 1.235-1.312 2.742-2.351 4.524-3.117 1.78-.766 3.797-1.149 6.047-1.149 1.89 0 3.515.243 4.875.727 1.359.484 2.476 1.16 3.351 2.027a8.305 8.305 0 0 1 1.969 3.106c.437 1.203.68 2.515.726 3.937a19.9 19.9 0 0 1-.07 2.625 53.65 53.65 0 0 1-.258 2.133h-16.336c.22 2.766.934 4.852 2.145 6.258 1.21 1.406 2.973 2.11 5.285 2.11 1.14 0 2.356-.122 3.645-.364a17.27 17.27 0 0 0 3.832-1.207l1.242 2.93c-.594.5-1.317.96-2.168 1.383a17.58 17.58 0 0 1-2.778 1.078c-1 .297-2.058.527-3.175.691-1.117.164-2.246.23-3.387.2-2.125-.048-4.012-.368-5.66-.962-1.649-.593-3.04-1.449-4.172-2.566-1.133-1.117-1.992-2.477-2.578-4.078-.586-1.602-.88-3.434-.88-5.496zm17.25-3.75c.047-.578.094-1.2.14-1.864a12.36 12.36 0 0 0-.011-1.945 6.168 6.168 0 0 0-.41-1.77 2.862 2.862 0 0 0-1.032-1.312 3.006 3.006 0 0 0-.984-.457 5.049 5.049 0 0 0-1.312-.152c-.907 0-1.664.222-2.274.668a5.11 5.11 0 0 0-1.488 1.734 8.643 8.643 0 0 0-.844 2.402c-.18.891-.3 1.79-.363 2.696h8.578zm11.719 13.008l2.765-.586V24.563l-3.164-1.336v-3.282l10.102-1.148 1.36.422v33.89l4.1.703V57h-15.163v-3.188zm17.53-6.047a5.71 5.71 0 0 1 1.267-2.438 9.457 9.457 0 0 1 2.25-1.875c.875-.531 1.835-.98 2.882-1.348a27.36 27.36 0 0 1 3.164-.902 27.162 27.162 0 0 1 3.082-.504 26.409 26.409 0 0 1 2.66-.152c0-1.25-.109-2.266-.327-3.047-.22-.781-.543-1.395-.973-1.84a3.325 3.325 0 0 0-1.57-.914c-.618-.164-1.325-.246-2.122-.246-1.015 0-1.957.082-2.824.246-.867.164-1.64.356-2.32.574-.68.22-1.242.442-1.688.668-.445.227-.753.403-.925.528l-1.594-3.61c.25-.203.695-.468 1.336-.797.64-.328 1.465-.648 2.472-.96 1.008-.313 2.188-.579 3.54-.797 1.351-.22 2.855-.329 4.511-.329 1.578 0 3.028.145 4.348.434 1.32.29 2.457.797 3.41 1.523.953.727 1.695 1.711 2.227 2.954.53 1.242.797 2.816.797 4.722v14.157h3.07v2.507a5.48 5.48 0 0 1-1.371.68c-.508.172-1.035.305-1.582.398-.547.094-1.09.16-1.63.2-.538.039-1.034.058-1.488.058a9.05 9.05 0 0 1-1.148-.093 5.066 5.066 0 0 1-1.371-.387 3.483 3.483 0 0 1-1.16-.82c-.328-.352-.508-.81-.54-1.372-.812.766-1.773 1.403-2.882 1.91-1.11.508-2.414.762-3.914.762-2.047 0-3.754-.277-5.121-.832-1.367-.554-2.434-1.289-3.2-2.203a6.459 6.459 0 0 1-1.44-3.164c-.196-1.195-.138-2.426.175-3.691zm8.11 1.382c0 1.516.43 2.61 1.29 3.282.859.672 2.117.89 3.773.656a4.018 4.018 0 0 0 1.148-.34 5.87 5.87 0 0 0 .961-.574c0-1.344.004-2.684.012-4.02.008-1.336.012-2.675.012-4.02-.485 0-1 .028-1.547.083-.547.055-1.086.152-1.617.293a7.49 7.49 0 0 0-1.524.586 5.31 5.31 0 0 0-1.289.926 4.034 4.034 0 0 0-.89 1.324c-.22.515-.329 1.117-.329 1.804zm20.977 4.664l2.906-.585V37.805l-3.187-2.25v-2.953l8.718-2.579 1.735.446v3.468a11.312 11.312 0 0 1 1.699-1.464 14.44 14.44 0 0 1 2.086-1.23c.742-.36 1.52-.653 2.332-.88a11.525 11.525 0 0 1 2.437-.41 14.582 14.582 0 0 1 2.485.07 8.647 8.647 0 0 1 2.262.563c.695.281 1.32.676 1.875 1.184.554.507 1.003 1.144 1.347 1.91a17.953 17.953 0 0 1 1.617-1.336 12.065 12.065 0 0 1 4.29-2.004 11.39 11.39 0 0 1 2.765-.317c1.547 0 2.875.25 3.984.75 1.11.5 2.02 1.227 2.73 2.18.712.953 1.235 2.121 1.571 3.504.336 1.383.504 2.965.504 4.746V53.18l3.281.633V57h-14.32v-3.188l2.742-.656V42.258c0-1.5-.09-2.703-.27-3.61-.179-.906-.464-1.605-.855-2.097a2.735 2.735 0 0 0-1.511-.973c-.618-.156-1.356-.234-2.215-.234-.547 0-1.133.12-1.758.363a8.466 8.466 0 0 0-1.64.832c.077.39.136.879.175 1.465.04.586.059 1.418.059 2.496v12.68l3.328.633V57H247.89v-3.188l3.328-.68V42.095c0-1.5-.117-2.707-.352-3.621-.234-.914-.574-1.614-1.02-2.098-.445-.484-1-.785-1.663-.902-.664-.118-1.426-.145-2.286-.082a4.96 4.96 0 0 0-.726.129 7.726 7.726 0 0 0-1.723.632c-.258.133-.449.27-.574.41v16.594l3.07.657V57h-14.273v-3.188zm50.46-6.046a5.71 5.71 0 0 1 1.266-2.438 9.457 9.457 0 0 1 2.25-1.875 15.28 15.28 0 0 1 2.883-1.348 27.36 27.36 0 0 1 3.164-.902 27.162 27.162 0 0 1 3.082-.504 26.409 26.409 0 0 1 2.66-.152c0-1.25-.109-2.266-.328-3.047-.218-.781-.543-1.395-.972-1.84a3.325 3.325 0 0 0-1.57-.914c-.618-.164-1.325-.246-2.122-.246-1.015 0-1.957.082-2.824.246-.867.164-1.64.356-2.32.574-.68.22-1.242.442-1.688.668-.445.227-.754.403-.925.528l-1.594-3.61c.25-.203.695-.468 1.336-.797.64-.328 1.465-.648 2.472-.96 1.008-.313 2.188-.579 3.54-.797 1.351-.22 2.855-.329 4.511-.329 1.578 0 3.027.145 4.348.434 1.32.29 2.457.797 3.41 1.523.953.727 1.695 1.711 2.226 2.954.532 1.242.797 2.816.797 4.722v14.157h3.07v2.507a5.48 5.48 0 0 1-1.37.68c-.508.172-1.036.305-1.582.398-.547.094-1.09.16-1.63.2-.538.039-1.034.058-1.488.058a9.05 9.05 0 0 1-1.148-.093 5.066 5.066 0 0 1-1.371-.387 3.483 3.483 0 0 1-1.16-.82c-.328-.352-.508-.81-.54-1.372-.812.766-1.773 1.403-2.882 1.91-1.11.508-2.414.762-3.914.762-2.047 0-3.754-.277-5.121-.832-1.368-.554-2.434-1.289-3.2-2.203a6.459 6.459 0 0 1-1.441-3.164c-.195-1.195-.137-2.426.176-3.691zm8.11 1.382c0 1.516.43 2.61 1.29 3.282.859.672 2.116.89 3.773.656a4.018 4.018 0 0 0 1.148-.34 5.87 5.87 0 0 0 .961-.574c0-1.344.004-2.684.012-4.02.008-1.336.012-2.675.012-4.02-.485 0-1 .028-1.547.083a10.34 10.34 0 0 0-1.618.293 7.49 7.49 0 0 0-1.523.586 5.31 5.31 0 0 0-1.29.926 4.034 4.034 0 0 0-.89 1.324c-.218.515-.328 1.117-.328 1.804z" fill="#4E4E4E"/><circle fill="#4E4E4E" cx="37" cy="37" r="37"/><path d="M21.483 23.134l-3.112-.5v-4.325h17.587v4.245l-4.298.66 5.696 19.88 1.687 7.093 1.609-6.935L46.03 23.24l-4.061-.607v-4.298h15.082v4.298l-3.19.501-11.918 36.519h-7.225L21.483 23.134z" fill="#F9F9F9"/></g></svg>